<?xml version="1.0" encoding="utf-8"?>
<svg xmlns="http://www.w3.org/2000/svg" width="206.95px" height="250px">
<g stroke-width="0.0773" stroke-linejoin="round" stroke-miterlimit="10">
<path fill="#FFFFFF" stroke="#FFFFFF" d="M170.94,198.31c25.13-18.15,35.97-34.4,35.97-66.07c0-15.81-4.44-24.71-14.57-40.96c-6.23-10.09-9.26-20.12-9.26-33.6c0-20.72,1.96-28.05,9.03-42.55c-15.73,5.25-31.36,6.75-43.48,6.75c-17.17,0-34.98-7.58-45-21.84c-10.07,16.26-30.36,22.3-48.72,22.3c-14.35,0-27.28-1.1-40.37-5.16c7.17,12.36,9.87,24.38,9.87,40.5c0,12.23-3.62,23.7-9.79,33.98c-8.98,14.96-14.57,28.37-14.57,46.75c0,24.83,17.88,45.64,36.2,60.43c22.77,18.09,49.54,25.98,67.69,51.12C116.17,227.44,133.37,226.26,170.94,198.31z"/>
<path fill="#EF2028" stroke="#EF2028" d="M23.79,184.28c-6.1-6.74-12.13-14.34-15.97-22.67c-3.3-7.17-5.58-14.9-5.58-22.31c0-11.59,2.02-21.32,6.52-31.41c4.55-10.21,11.35-19.44,14.73-30.17h0.3V184.28z M54.3,208.47V84.77L33.66,71.52v122.24C40.04,199.35,46.08,203.46,54.3,208.47z M63.41,214.01l0-137.74h20.64l0,150.94C77.38,222.5,70.44,218.14,63.41,214.01z M103.55,245.87c2.97-4.69,6.43-9.16,10.62-12.82l0.38-156.25H93l0.23,157.77C97.04,237.93,100.45,241.84,103.55,245.87z M123.59,226.22l-0.3-148.97h20.64l-0.45,136.53L123.59,226.22z M174.2,192.77V76.8h-21.1v130.84C160.3,202.9,167.42,198.09,174.2,192.77z M183.16,77.25c2.25,7.76,6.61,14.76,10.78,21.62c6.97,11.25,10.47,20.43,10.47,33.37c0,9.92-1.09,20.72-5.16,30.42c-3.87,9.21-10.15,17.21-17.61,23.82V77.25H183.16z M74.87,49.57H59.61v5.01h15.25v7.66h6.83V47.22c-0.4-3.47-2.22-6.7-5.21-8.56c-3.17-1.98-6.28-2.59-10.27-2.59c-3.44,0-7.38,0.49-10.65,2.44c-3.29,1.96-5.02,4.99-5.28,8.71v15.02h6.75V48.43c0.3-1.76,1.26-3.37,3.08-4.5c1.82-1.12,3.81-1.42,5.88-1.42c2.64,0,4.03,0.31,5.83,1.15c1.93,0.89,2.93,2.65,3.05,3.93V49.57z M112.28,47.67c-0.12-1.28-1.12-3.05-3.05-3.93c-1.8-0.84-3.19-1.15-5.83-1.15c-2.06,0-4.06,0.3-5.88,1.42c-1.81,1.12-2.78,2.73-3.08,4.5v13.81h-6.75V47.29c0.26-3.72,1.99-6.75,5.28-8.71c3.27-1.95,7.21-2.44,10.65-2.44c4,0,7.1,0.61,10.27,2.59c2.98,1.86,4.81,5.09,5.21,8.56v15.02h-6.83v-7.66H97.03v-5.01h15.25V47.67z M149.39,49.8V37.21h6.83v14.56c-0.15,3.72-1.81,6.59-4.97,8.61c-3.29,2.09-7.65,2.54-11.04,2.54c-4.21,0-7.25-0.54-10.47-2.52c-3.17-1.94-5.16-5.71-5.16-8.48V37.28h6.83v13.35c0,0.86,0.55,5.46,9.03,5.46C147.95,56.09,149.39,51.2,149.39,49.8z"/>
<path fill="#293A88" stroke="#293A88" d="M172.23,208.02c0.39-0.36,0.53-0.82,0.53-1.52c0-0.73-0.2-1.34-0.76-1.74c-0.68-0.4-1.1-0.45-2.2-0.45h-2.88v7.58h1.52v-3.26h0.99l1.82,3.26h1.59l-2.05-3.34C171.3,208.47,171.83,208.37,172.23,208.02z M168.44,207.41v-1.97h1.29c0.56,0,0.82,0.08,1.21,0.3c0.23,0.17,0.3,0.32,0.3,0.68c0,0.44-0.03,0.51-0.23,0.68c-0.33,0.27-0.64,0.3-1.21,0.3H168.44z M169.65,201.34c-3.98,0-6.98,2.96-6.98,6.75c0,3.92,3.08,6.75,6.98,6.75c3.93,0,6.98-2.96,6.98-6.75C176.63,204.3,173.59,201.34,169.65,201.34z M169.65,213.4c-3.36,0-5.16-2.84-5.16-5.31c0-1.81,1.32-5.31,5.16-5.31c2.54,0,5.09,1.88,5.09,5.31C174.74,211.31,172.46,213.4,169.65,213.4z M193.6,173.05c-6.24,9.16-14.29,15.96-23.76,23.06c-2.39,1.8-4.84,3.52-7.32,5.19L11.78,101.62c1.41-2.61,2.88-5.18,4.29-7.79c5.75-10.22,9.9-20.39,10.34-31.45L193.6,173.05z M187.64,19c-12.59,4.03-27.74,5.23-39.16,5.23c-17.07,0-33.78-6.98-44.93-20.02C92.18,19.44,72.24,24.76,54.83,24.76c-12.05-0.06-24.22-0.71-35.89-3.87c6,11.2,7.66,24.14,7.66,36.79l-0.07,1.88l21.2,14.04l134.44,0c-1.14-4.89-1.67-9.69-1.67-14.94C180.5,41.6,181.41,31.31,187.64,19z M163.28,66.56H43.98V34.4l119.3,0V66.56z"/>
<path fill="#FFFFFF" stroke="#FFFFFF" d="M75.17,122c0,3.52-3.18,8.18-7.59,8.65c-4.44,0.68-8.3-1.6-11.84-4.17c-5.51-4.48-7.67-10.56-7.13-17.67V85.75l7.13,4.55v24.12c0.24,3.37,2.15,6.52,5.31,7.89c1.71,0.84,3.03,1.05,4.67,0.16c1.64-0.89,2.46-2.75,2.46-4.09V99.1l6.98,5.08V122z M145.74,160.16l0,7.74l-11.91-7.81v6.67l11.91,8.12v10.61l6.98,3.88v-28.22c-0.26-3.11-1.31-6.19-3.18-8.86c-2.43-3.47-4.67-4.94-7.6-6.84c-2.46-1.68-7.14-3.26-11-2.2c-4.03,1.02-6.82,4.18-7.13,7.91v19.63l6.22,3.79v-18.73c0.31-2.36,1.39-4.6,3.84-5.53c2.54-0.97,4.16-0.22,6.71,1.51C143.28,153.89,145.24,156.74,145.74,160.16z M84.05,136.57v7.05l16.47,10.69c3.5,1.98,8.89,3.01,11.84-0.46c2.2-2.8,3.14-6.63,0.98-10.37c-1.81-3.14-4.6-4.96-7.59-6.85l-10.78-7.28c-2.26-1.27-3.36-4.4-2.13-6.07c0.83-0.86,2.81-0.68,3.42-0.3l17.98,11.83l0.08-6.75l-17.45-11.76c-3.11-1.39-7.14-1.48-10.02,1.59c-3.44,5.08-2.92,11.73,2.35,14.79c0,0,13.96,10.01,13.96,10.01c4.35,2.3,3.79,4.95,2.66,6.07c-1.37,0.94-3.41,0.13-4.63-0.68L84.05,136.57z"/></g>
</svg>