<?xml version="1.0" encoding="UTF-8" standalone="no"?>
<!-- Generator: Adobe Illustrator 23.0.1, SVG Export Plug-In . SVG Version: 6.00 Build 0)  -->

<svg
   version="1.1"
   id="svg2"
   x="0px"
   y="0px"
   width="399.996"
   height="453.48599"
   viewBox="0 0 399.996 453.486"
   enable-background="new 0 0 400 454.228"
   xml:space="preserve"
   xmlns:xlink="http://www.w3.org/1999/xlink"
   xmlns="http://www.w3.org/2000/svg"
   xmlns:svg="http://www.w3.org/2000/svg"><defs
   id="defs5718"><linearGradient
     id="linearGradient7379"
     gradientUnits="userSpaceOnUse"
     x1="-484.0191"
     y1="660.96527"
     x2="-193.8289"
     y2="660.96527"
     gradientTransform="matrix(1,0,0,-0.99963085,538.99999,819.96462)"><stop
       offset="0"
       style="stop-color:#4047FF"
       id="stop22" /><stop
       offset="1"
       style="stop-color:#04006C"
       id="stop24" /></linearGradient><linearGradient
     xlink:href="#SVGID_1_"
     id="linearGradient7389"
     gradientUnits="userSpaceOnUse"
     gradientTransform="matrix(1,0,0,-1,810.76697,994.46192)"
     x1="-484.0191"
     y1="660.96527"
     x2="-193.8289"
     y2="660.96527" /></defs>

<g
   id="g10972"
   transform="matrix(0.96646304,0,0,0.92992851,13.411057,28.924526)"><g
     id="g11103"><path
       fill="url(#SVGID_1_)"
       d="m 345.17099,104.67238 c -2.10498,14.99043 -9.20802,64.43418 -45.515,112.8243 -36.83301,49.96855 -84.97902,74.16461 -99.71198,81.52789 C 185.47399,291.6603 137.06497,267.46523 100.232,217.49668 64.187986,169.36847 57.084997,119.92573 54.980014,104.67238 L 76.816999,92.83774 V 76.53175 L 98.653974,64.697116 V 48.391158 C 128.646,33.926486 161.79599,24.721888 199.94401,19.461814 c 38.14797,4.997158 71.298,14.464672 101.28998,28.929344 v 16.305958 l 21.83699,11.834634 v 16.30599 z"
       id="path27-2"
       style="fill:url(#linearGradient7379);stroke-width:0.999811"
       transform="matrix(1.0347007,0,0,1.0753515,-13.87643,-31.104032)" /><g
       id="g33"
       transform="matrix(1.0347006,0,0,1.0749545,522.54757,-95.93536)"><linearGradient
         id="linearGradient525"
         gradientUnits="userSpaceOnUse"
         x1="-484.0191"
         y1="660.96527"
         x2="-193.8289"
         y2="660.96527"
         gradientTransform="matrix(1,0,0,-1,539,820.2674)"><stop
           offset="0"
           style="stop-color:#4047FF"
           id="stop521" /><stop
           offset="1"
           style="stop-color:#04006C"
           id="stop523" /></linearGradient><g
         id="g7787"
         transform="translate(-518.434,60.310765)"><path
           fill="#ffc200"
           d="M 342.803,81.295 V 64.984 L 320.966,53.145 V 36.044 l -11.05,-5.262 C 278.083,15.786 243.092,5.788 202.575,0.263 L 199.944,0 197.313,0.263 C 157.06,5.788 121.806,15.785 90.235,31.045 l -11.05,5.262 V 53.408 L 57.349,64.984 v 16.312 l -23.679,12.628 1.842,13.418 c 6.314,45.252 22.889,86.294 49.198,121.811 26.572,36.044 62.353,65.51 106.552,87.61 l 8.682,4.473 8.682,-4.473 c 44.199,-22.1 79.98,-51.566 106.552,-87.61 26.309,-35.517 42.884,-76.56 49.198,-121.812 l 1.842,-13.418 c 0,0.001 -23.415,-12.628 -23.415,-12.628 z m 2.368,23.416 c -2.105,14.996 -9.208,64.458 -45.515,112.866 -36.833,49.987 -84.979,74.192 -99.712,81.558 -14.47,-7.367 -62.879,-31.571 -99.712,-81.558 C 64.188,169.431 57.085,119.97 54.98,104.711 L 76.817,92.872 V 76.56 L 98.654,64.721 V 48.409 c 29.992,-14.47 63.142,-23.678 101.29,-28.94 38.148,4.999 71.298,14.47 101.29,28.94 v 16.312 l 21.837,11.839 v 16.312 z"
           id="path29" /><path
           fill="#ffc200"
           d="m 167.584,58.933 1.052,132.861 -1.052,0.526 C 153.64,156.803 145.221,112.603 142.59,68.141 c -6.84,3.157 -14.207,6.84 -21.837,11.576 3.157,40.253 9.997,75.507 22.363,109.183 l -7.103,3.946 C 117.333,166.8 105.231,135.229 97.075,97.607 c -5.788,5.262 -11.313,11.05 -17.101,17.364 10.787,44.989 28.151,79.191 53.145,106.815 l 19.206,-11.576 c 9.471,19.732 22.626,39.201 37.359,54.723 V 54.986 c -7.367,0.789 -14.733,2.105 -22.1,3.947 z m 124.18,68.667 c 7.893,-8.682 9.471,-14.996 9.471,-22.626 0,-10.787 -8.945,-20.521 -22.1,-28.94 -7.893,-4.999 -19.995,-11.05 -37.622,-16.049 -9.997,-2.631 -20.784,-4.473 -31.571,-4.736 v 210.21 c 44.199,-22.626 96.555,-84.979 96.818,-116.813 0.526,-9.734 -4.473,-16.048 -14.996,-21.046 z M 232.042,80.243 c 10.787,0 46.041,11.05 46.041,25.257 0,4.999 -4.473,12.365 -18.416,19.732 l -27.625,14.733 V 80.243 Z m 27.361,116.55 c -6.314,7.103 -16.312,18.153 -27.362,26.572 v -60.248 c 0,0 39.99,-22.363 41.305,-23.415 11.839,3.157 11.313,11.839 11.313,12.628 0.001,11.05 -11.312,28.151 -25.256,44.463 z"
           id="path31" /></g></g><g
       id="g11056"><g
         aria-label="entertainment"
         transform="scale(0.97688294,1.0236641)"
         id="text934"
         style="font-weight:bold;font-size:46.0296px;font-family:'Warner Bros. Bold Cond';-inkscape-font-specification:'Warner Bros. Bold Cond Bold';text-align:center;text-anchor:middle;fill:#0022af;fill-opacity:1;stroke-width:19.8504"><path
           d="m 37.092561,413.77769 h 18.641988 v 5.7537 H 43.306557 v 7.36474 h 9.666216 v 5.2934 h -9.666216 v 8.05518 h 12.888288 v 5.7537 H 37.092561 Z"
           id="path10974"
           style="fill:#0022af;fill-opacity:1" /><path
           d="m 60.797781,413.77769 h 5.201344 l 12.059755,19.56258 h 0.230148 v -19.56258 h 6.213996 v 32.22072 H 79.301679 L 67.241925,426.43583 h -0.230148 v 19.56258 h -6.213996 z"
           id="path10976"
           style="fill:#0022af;fill-opacity:1" /><path
           d="m 95.089854,419.53139 h -7.134587 v -5.7537 h 20.483173 v 5.7537 h -7.13459 v 26.46702 h -6.213996 z"
           id="path10978"
           style="fill:#0022af;fill-opacity:1" /><path
           d="m 110.92404,413.77769 h 18.64199 v 5.7537 h -12.42799 v 7.36474 h 9.66621 v 5.2934 h -9.66621 v 8.05518 h 12.88829 v 5.7537 h -19.10229 z"
           id="path10980"
           style="fill:#0022af;fill-opacity:1" /><path
           d="m 154.97434,422.52332 q 0,2.53163 -1.42692,4.74105 -1.42691,2.16339 -3.45222,4.09663 l 7.08856,14.63741 h -6.62826 l -5.33943,-10.77092 q -1.33486,0.87456 -2.57766,1.70309 -1.19677,0.82854 -1.97927,1.38089 v 7.68694 h -6.214 v -32.22072 h 7.68694 q 2.71575,0 5.06326,0.50633 2.34751,0.4603 4.0506,1.51898 1.74913,1.05868 2.71575,2.71574 1.01265,1.65707 1.01265,4.00458 z m -14.3152,8.69959 q 2.25545,-1.10471 4.0506,-2.43957 0.7825,-0.55235 1.47295,-1.19677 0.73647,-0.69044 1.28883,-1.42691 0.59838,-0.73648 0.92059,-1.51898 0.36824,-0.82853 0.36824,-1.65707 0,-1.70309 -1.2428,-2.71574 -1.2428,-1.01265 -3.86649,-1.01265 h -2.99192 z"
           id="path10982"
           style="fill:#0022af;fill-opacity:1" /><path
           d="m 165.51508,419.53139 h -7.13459 v -5.7537 h 20.48317 v 5.7537 h -7.13459 v 26.46702 h -6.21399 z"
           id="path10984"
           style="fill:#0022af;fill-opacity:1" /><path
           d="m 188.99019,413.77769 h 6.81238 l 9.52813,32.22072 h -6.49018 l -1.97927,-7.36473 h -9.0218 l -1.97927,7.36473 h -6.53621 z m 6.72032,20.02288 -3.31413,-12.65814 h -0.13809 l -3.2681,12.65814 z"
           id="path10986"
           style="fill:#0022af;fill-opacity:1" /><path
           d="m 208.78295,413.77769 h 6.214 v 32.22072 h -6.214 z"
           id="path10988"
           style="fill:#0022af;fill-opacity:1" /><path
           d="m 221.44106,413.77769 h 5.20135 l 12.05975,19.56258 h 0.23015 v -19.56258 h 6.214 v 32.22072 h -5.20135 l -12.05975,-19.56258 h -0.23015 v 19.56258 h -6.214 z"
           id="path10990"
           style="fill:#0022af;fill-opacity:1" /><path
           d="m 251.59049,413.77769 h 5.33944 l 8.46944,13.90094 h 0.0921 l 8.46945,-13.90094 h 5.24737 v 32.22072 h -6.21399 v -20.34508 h -0.0921 l -7.50283,12.2899 -7.50282,-12.2899 h -0.0921 v 20.34508 h -6.214 z"
           id="path10992"
           style="fill:#0022af;fill-opacity:1" /><path
           d="m 284.68576,413.77769 h 18.64199 v 5.7537 h -12.42799 v 7.36474 h 9.66621 v 5.2934 h -9.66621 v 8.05518 h 12.88829 v 5.7537 h -19.10229 z"
           id="path10994"
           style="fill:#0022af;fill-opacity:1" /><path
           d="m 308.39097,413.77769 h 5.20134 l 12.05976,19.56258 h 0.23015 v -19.56258 h 6.21399 v 32.22072 h -5.20134 l -12.05976,-19.56258 h -0.23014 v 19.56258 h -6.214 z"
           id="path10996"
           style="fill:#0022af;fill-opacity:1" /><path
           d="m 342.68305,419.53139 h -7.13459 v -5.7537 h 20.48317 v 5.7537 h -7.13459 v 26.46702 h -6.21399 z"
           id="path10998"
           style="fill:#0022af;fill-opacity:1" /></g><g
         id="g20"
         transform="matrix(1.0346911,0,0,1.0877274,-13.87643,-36.016343)"
         style="fill:#0022af;fill-opacity:1"><path
           id="path28-6"
           fill="#0022af"
           d="m 100.416,383.134 v -16.725 c 1.061,0 3.213,0 4.136,0 4.872,0 7.106,2.082 7.106,5.115 0,6.416 -11.242,11.61 -11.242,11.61 z m 19.914,-12.353 c 0,-8.557 -7.77,-12.081 -17.796,-12.081 H 91.743 v 44.966 h 8.673 V 392.9 c 1.367,-1.016 3.955,-2.625 6.433,-4.324 l 7.452,15.09 h 9.122 L 113.584,383.3 c 3.736,-3.484 6.746,-7.688 6.746,-12.519"
           style="fill:#0022af;fill-opacity:1" /><path
           id="path30-1"
           fill="#0022af"
           d="m 211.827,383.134 v -16.725 c 1.061,0 3.213,0 4.136,0 4.872,0 7.107,2.082 7.107,5.115 -0.001,6.416 -11.243,11.61 -11.243,11.61 z m 19.914,-12.353 c 0,-8.557 -7.769,-12.081 -17.796,-12.081 h -10.792 v 44.966 h 8.673 V 392.9 c 1.368,-1.016 3.955,-2.625 6.433,-4.324 l 7.452,15.09 h 9.121 L 224.993,383.3 c 3.739,-3.484 6.748,-7.688 6.748,-12.519"
           style="fill:#0022af;fill-opacity:1" /><path
           id="path32-8"
           fill="#0022af"
           d="m 297.459,383.134 v -16.725 c 1.06,0 3.212,0 4.136,0 4.871,0 7.105,2.082 7.105,5.115 0,6.416 -11.241,11.61 -11.241,11.61 z m 19.913,-12.353 c 0,-8.557 -7.769,-12.081 -17.796,-12.081 h -10.792 v 44.966 h 8.675 V 392.9 c 1.367,-1.016 3.955,-2.625 6.432,-4.324 l 7.452,15.09 h 9.123 L 310.627,383.3 c 3.736,-3.484 6.745,-7.688 6.745,-12.519"
           style="fill:#0022af;fill-opacity:1" /><path
           id="path34-7"
           fill="#0022af"
           d="M 41.756,403.666 53.06,358.7 H 44.325 L 37.58,389.533 H 37.323 L 30.193,358.7 h -7.195 l -7.195,30.833 H 15.546 L 8.929,358.7 H 0 l 11.307,44.966 h 8.222 l 6.937,-29.549 h 0.193 l 6.937,29.549 h 8.16"
           style="fill:#0022af;fill-opacity:1" /><path
           id="path36-9"
           fill="#0022af"
           d="m 64.335,386.642 4.556,-17.666 h 0.197 l 4.624,17.666 z m 0,-27.942 -13.491,44.966 h 9.119 L 62.728,393.39 H 75.32 l 2.758,10.276 h 9.064 L 73.842,358.7 h -9.507"
           style="fill:#0022af;fill-opacity:1" /><path
           id="path38-2"
           fill="#0022af"
           d="m 152.093,386 -16.828,-27.3 h -7.261 v 44.966 h 8.673 v -27.3 h 0.32 l 16.832,27.3 h 7.257 V 358.7 h -8.671 V 386 h -0.322"
           style="fill:#0022af;fill-opacity:1" /><path
           id="path40-0"
           fill="#0022af"
           d="m 196.735,395.636 h -17.984 v -11.241 h 13.489 v -7.388 H 178.751 V 366.73 h 17.344 v -8.03 h -26.017 v 44.966 h 26.657 v -8.03"
           style="fill:#0022af;fill-opacity:1" /><path
           id="path42-2"
           fill="#0022af"
           d="m 339.209,365.773 c 6.428,0 8.308,7.804 8.308,15.417 0,7.607 -1.88,15.416 -8.308,15.416 -6.421,0 -8.301,-7.809 -8.301,-15.416 0,-7.614 1.88,-15.417 8.301,-15.417 z m 0,38.862 c 11.563,0 16.976,-10.943 16.976,-23.445 0,-12.49 -5.413,-23.452 -16.976,-23.452 -11.563,0 -16.976,10.963 -16.976,23.452 0,12.502 5.414,23.445 16.976,23.445"
           style="fill:#0022af;fill-opacity:1" /><path
           id="path44-3"
           fill="#0022af"
           d="m 376.236,377.652 c -3.535,-2.248 -7.101,-3.853 -7.101,-7.708 0,-2.571 2.283,-4.497 4.852,-4.497 2.891,0 5.817,1.927 6.779,3.533 l 5.461,-5.14 c -2.569,-3.533 -7.1,-6.103 -12.561,-6.103 -8.031,0 -13.203,4.817 -13.203,12.207 0,8.029 5.816,11.563 10.504,14.261 3.663,2.119 7.231,3.727 7.231,7.58 0,3.213 -2.925,5.14 -6.137,5.14 -3.213,0 -6.459,-1.927 -8.385,-4.819 l -5.14,5.14 c 2.892,4.496 8.708,7.388 13.847,7.388 8.031,0 14.488,-5.14 14.488,-12.849 -0.002,-8.028 -6.01,-11.241 -10.635,-14.133"
           style="fill:#0022af;fill-opacity:1" /><path
           id="path46-7"
           fill="#0022af"
           d="m 395.183,394.676 c -2.891,0 -4.819,2.248 -4.819,4.817 0,2.57 1.928,4.818 4.819,4.818 2.889,0 4.817,-2.248 4.817,-4.818 0,-2.569 -1.928,-4.817 -4.817,-4.817"
           style="fill:#0022af;fill-opacity:1" /><path
           id="path48-5"
           fill="#0022af"
           d="m 261.1,395.702 v -9.366 c 2.833,-1.129 5.969,-2.599 8.844,-4.406 1.348,0.9 4.335,3.269 4.335,6.588 0,4.389 -4.018,7.005 -13.179,7.184 z m 0,-29.493 c 1.072,0 3.104,0 4.213,0 3.98,0 6.021,1.044 6.021,3.296 0,4.053 -8.515,7.672 -10.235,8.361 v -11.657 z m 14.663,11.049 c 2.327,-2.503 3.847,-5.4 3.847,-8.692 0,-6.439 -5.497,-9.784 -13.385,-9.866 h -13.799 v 44.966 h 8.675 c 14.121,-0.415 21.399,-6.135 21.399,-14.815 -10e-4,-6.437 -5.42,-10.661 -6.737,-11.593"
           style="fill:#0022af;fill-opacity:1" /></g></g></g></g></svg>
