<svg enable-background="new 0 0 257.88 279.36" height="329.23918" viewBox="0 0 257.88 279.36" width="303.730559" xmlns="http://www.w3.org/2000/svg" xmlns:xlink="http://www.w3.org/1999/xlink"><clipPath id="a"><ellipse cx="128.82" cy="166.01" rx="60.23" ry="60.23" transform="matrix(.9669 -.2551 .2551 .9669 -38.0865 38.3511)"/></clipPath><path d="m0 0h257.88v279.36h-257.88z" fill="#fff"/><path d="m249.85 271.01h-241.83v-262.65h241.83zm-237.43-4.4h233.04v-253.86h-233.04z" fill="#00205c"/><path d="m19.97 100.8h216.79v26.37h-216.79z" fill="#c10230"/><path d="m19.97 153.16h216.79v26.37h-216.79z" fill="#c10230"/><path d="m19.97 205.57h216.79v26.37h-216.79z" fill="#c10230"/><path d="m19.9 37.98c2.53-.19 2.94-1.07 2.94-3.52v-12.98c-.41-.74-1.15-.91-2.47-.91h-.47v-1.26h5.36l10.94 14.99v-10.29c0-2.67-.52-3.49-3.27-3.52v-1.18h7.67v1.18c-2.48.11-3 .99-3 3.52v15.65h-1.1l-12.22-16.7v11.49c0 2.58.58 3.52 3.27 3.52v1.18h-7.65z" fill="#00205c"/><path d="m60.21 18.98 7.01 17.52c.44 1.07.77 1.38 1.9 1.38.17 0 .36-.03.55-.03v1.32h-8.22v-1.32h1.05c1.15 0 1.68-.08 1.68-.72 0-.22-.08-.55-.25-.96l-1.26-3.46h-7.4l-.85 2.14c-.25.63-.38 1.29-.38 1.65 0 .88.69 1.35 2.01 1.35h.69v1.32h-7.09v-1.32h.22c1.62 0 2.17-.63 2.83-2.31l6.46-16.55h1.05zm-1.32 4.34-3.13 7.97h6.41z" fill="#00205c"/><path d="m91.22 37.87h1.76v1.29h-9.4v-1.29h1.76c1.1 0 1.46-.25 1.46-1.32v-14.74c0-1.46-.44-1.46-1.81-1.46-2.64 0-3.66 1.98-4.29 6.57h-1.04l.38-7.62h16.5l.41 7.62h-1.05c-.74-5.09-1.68-6.57-4.84-6.57-1.02 0-1.27.33-1.27 1.46v14.74c0 1.07.33 1.32 1.43 1.32z" fill="#00205c"/><path d="m109.33 37.87h1.48c1.13 0 1.48-.27 1.48-1.32v-14.63c0-1.04-.36-1.32-1.48-1.32h-1.48v-1.29h8.96v1.29h-1.48c-1.13 0-1.46.27-1.46 1.32v14.63c0 1.04.33 1.32 1.46 1.32h1.48v1.29h-8.96z" fill="#00205c"/><path d="m133.75 21.86c1.76-2.01 4.12-3.05 6.87-3.05 2.8 0 5 .99 6.82 3.02 1.73 1.95 2.61 4.43 2.61 7.4 0 2.94-.71 5.22-2.42 7.2-1.84 2.14-4.15 3.19-7.01 3.19s-5.14-1.02-7.01-3.19c-1.7-1.98-2.45-4.29-2.45-7.2.01-2.94.92-5.47 2.59-7.37zm6.88 16.53c3.96 0 5.88-3.05 5.88-9.16 0-6.16-1.84-9.16-5.88-9.16-3.99 0-5.88 3-5.88 9.16-.01 6.13 1.86 9.16 5.88 9.16z" fill="#00205c"/><path d="m160.88 37.98c2.53-.19 2.94-1.07 2.94-3.52v-12.98c-.41-.74-1.15-.91-2.47-.91h-.47v-1.26h5.36l10.94 14.99v-10.29c0-2.67-.52-3.49-3.27-3.52v-1.18h7.67v1.18c-2.47.11-3 .99-3 3.52v15.65h-1.1l-12.24-16.69v11.49c0 2.58.58 3.52 3.27 3.52v1.18h-7.64v-1.18z" fill="#00205c"/><path d="m201.46 18.98 7.01 17.52c.44 1.07.77 1.38 1.9 1.38.17 0 .36-.03.55-.03v1.32h-8.22v-1.32h1.04c1.15 0 1.68-.08 1.68-.72 0-.22-.08-.55-.25-.96l-1.26-3.46h-7.4l-.85 2.14c-.25.63-.38 1.29-.38 1.65 0 .88.69 1.35 2.01 1.35h.69v1.32h-7.09v-1.32h.22c1.62 0 2.17-.63 2.83-2.31l6.46-16.55h1.06zm-1.32 4.34-3.13 7.97h6.41z" fill="#00205c"/><path d="m220.27 37.87h1.43c1.1 0 1.46-.25 1.46-1.32v-14.63c0-1.07-.36-1.32-1.46-1.32h-1.43v-1.29h8.77v1.29h-1.46c-1.1 0-1.43.25-1.43 1.32v14.63c0 1.29.52 1.38 2.34 1.38 2.53 0 4.18-.22 5.11-1.02s1.62-2.56 2.09-5.36h1.07l-.41 7.62h-16.09v-1.3z" fill="#00205c"/><path d="m19.93 94.35h1.43c1.1 0 1.46-.25 1.46-1.32v-14.63c0-1.07-.36-1.32-1.46-1.32h-1.43v-1.29h10.39c3.9 0 5.94 1.7 5.94 4.84 0 2.36-1.54 3.93-4.62 4.59 3.79.5 5.64 2.17 5.64 5.09 0 3.33-2.58 5.33-7.29 5.33h-10.06zm5.83-9.6h2.2c3.55 0 5.11-.82 5.11-3.88 0-2.78-1.24-3.85-4.21-3.85h-1.73c-1.13 0-1.38.27-1.38 1.21v6.52zm0 8.31c0 1.02.27 1.29 1.51 1.29h1.95c3.27 0 4.7-1.15 4.7-4.12 0-3.13-1.73-4.26-5.69-4.26h-2.47z" fill="#00205c"/><path d="m57.36 75.46 7.01 17.52c.44 1.07.77 1.38 1.9 1.38.17 0 .36-.03.55-.03v1.32h-8.22v-1.32h1.04c1.15 0 1.68-.08 1.68-.71 0-.22-.08-.55-.25-.96l-1.26-3.46h-7.4l-.85 2.14c-.25.63-.38 1.29-.38 1.65 0 .88.69 1.35 2.01 1.35h.69v1.32h-7.09v-1.32h.22c1.62 0 2.17-.63 2.83-2.31l6.46-16.55h1.06zm-1.32 4.35-3.13 7.97h6.41z" fill="#00205c"/><path d="m79.05 95.97h-.96l-.14-7.97h1.13c.82 4.54 3.13 6.9 6.65 6.9 3 0 4.65-1.51 4.65-3.93 0-1.15-.44-2.06-1.21-2.61-.96-.69-2.5-.96-4.51-1.51-4.4-1.18-6.52-2.28-6.52-5.91 0-3.41 2.28-5.61 5.86-5.61 2.01 0 3.77.66 5.14 1.92l1.07-1.65h1.02l.3 7.15h-1.07c-1.04-4.1-3.22-6.16-6.46-6.16-2.42 0-3.79 1.21-3.79 3.33 0 2.64 2.06 2.94 5.72 3.85 1.98.49 3.63.91 4.89 2.06 1.07.99 1.68 2.47 1.68 4.23 0 3.82-2.42 6.08-6.82 6.08-2.14 0-4.15-.77-5.47-2.06z" fill="#00205c"/><path d="m105.09 94.35h1.43c1.1 0 1.46-.25 1.46-1.32v-14.63c0-1.07-.36-1.32-1.46-1.32h-1.43v-1.29h16.09l.36 7.01h-1.18c-.36-2.42-1.07-4.01-1.92-4.76-.96-.8-2.58-1.02-5.11-1.02-1.81 0-2.34.08-2.34 1.38v6.3h.38c2.83 0 3.9-.93 4.15-3.79h1.15v8.74h-1.15c-.25-2.86-1.29-3.77-4.15-3.77-.11 0-.25 0-.38 0v7.15c0 1.35.6 1.4 2.56 1.4 2.31 0 3.96-.17 5.06-.71 1.27-.63 2.01-2.47 2.58-5.61h1.04l-.41 7.53h-16.72v-1.29z" fill="#00205c"/><path d="m134.13 94.35h1.43c1.1 0 1.46-.25 1.46-1.32v-14.63c0-1.07-.36-1.32-1.46-1.32h-1.43v-1.29h10.39c3.9 0 5.94 1.7 5.94 4.84 0 2.36-1.54 3.93-4.62 4.59 3.79.5 5.64 2.17 5.64 5.09 0 3.33-2.58 5.33-7.29 5.33h-10.06zm5.83-9.6h2.2c3.55 0 5.11-.82 5.11-3.88 0-2.78-1.24-3.85-4.21-3.85h-1.73c-1.13 0-1.37.27-1.37 1.21zm0 8.31c0 1.02.27 1.29 1.51 1.29h1.95c3.27 0 4.7-1.15 4.7-4.12 0-3.13-1.73-4.26-5.69-4.26h-2.47z" fill="#00205c"/><path d="m171.56 75.46 7.01 17.52c.44 1.07.77 1.38 1.9 1.38.17 0 .36-.03.55-.03v1.32h-8.22v-1.32h1.04c1.15 0 1.68-.08 1.68-.71 0-.22-.08-.55-.25-.96l-1.27-3.48h-7.4l-.85 2.14c-.25.63-.39 1.29-.39 1.65 0 .88.69 1.35 2.01 1.35h.69v1.32h-7.09v-1.32h.22c1.62 0 2.17-.63 2.83-2.31l6.46-16.55zm-1.32 4.35-3.13 7.97h6.41z" fill="#00205c"/><path d="m191.9 94.35h1.43c1.1 0 1.46-.25 1.46-1.32v-14.63c0-1.07-.36-1.32-1.46-1.32h-1.43v-1.29h8.77v1.29h-1.46c-1.1 0-1.43.25-1.43 1.32v14.63c0 1.29.52 1.38 2.34 1.38 2.53 0 4.18-.22 5.11-1.02s1.62-2.56 2.09-5.36h1.07l-.41 7.62h-16.08z" fill="#00205c"/><path d="m220.3 94.35h1.43c1.1 0 1.46-.25 1.46-1.32v-14.63c0-1.07-.36-1.32-1.46-1.32h-1.43v-1.29h8.77v1.29h-1.46c-1.1 0-1.43.25-1.43 1.32v14.63c0 1.29.52 1.38 2.34 1.38 2.53 0 4.18-.22 5.11-1.02s1.62-2.56 2.09-5.36h1.07l-.41 7.62h-16.08z" fill="#00205c"/><path d="m19.82 255.72h1.43c1.07 0 1.46-.27 1.46-1.32v-14.63c0-1.04-.38-1.32-1.46-1.32h-1.43v-1.29h8.77v1.29h-1.46c-1.07 0-1.43.27-1.43 1.32v6.13h9.3v-6.13c0-1.04-.39-1.32-1.46-1.32h-1.46v-1.29h8.8v1.29h-1.46c-1.07 0-1.46.27-1.46 1.32v14.63c0 1.04.39 1.32 1.46 1.32h1.46v1.29h-8.8v-1.29h1.46c1.07 0 1.46-.27 1.46-1.32v-7.09h-9.29v7.09c0 1.04.36 1.32 1.43 1.32h1.46v1.29h-8.77v-1.29z" fill="#00205c"/><path d="m52.41 236.83 7.01 17.52c.44 1.07.77 1.38 1.9 1.38.17 0 .36-.03.55-.03v1.32h-8.22v-1.32h1.04c1.15 0 1.68-.08 1.68-.72 0-.22-.08-.55-.25-.96l-1.27-3.46h-7.4l-.85 2.14c-.25.63-.38 1.29-.38 1.65 0 .88.69 1.35 2.01 1.35h.69v1.32h-7.09v-1.32h.22c1.62 0 2.17-.63 2.83-2.31l6.46-16.55h1.07zm-1.32 4.35-3.13 7.97h6.41z" fill="#00205c"/><path d="m63.14 255.72h1.43c1.1 0 1.46-.25 1.46-1.32v-14.63c0-1.07-.36-1.32-1.46-1.32h-1.43v-1.29h8.77v1.29h-1.46c-1.1 0-1.43.25-1.43 1.32v14.63c0 1.29.52 1.37 2.34 1.37 2.53 0 4.18-.22 5.11-1.02s1.62-2.56 2.09-5.36h1.07l-.41 7.62h-16.08z" fill="#00205c"/><path d="m81.91 255.72h1.43c1.1 0 1.46-.25 1.46-1.32v-14.63c0-1.07-.36-1.32-1.46-1.32h-1.43v-1.29h8.77v1.29h-1.46c-1.1 0-1.43.25-1.43 1.32v14.63c0 1.29.52 1.37 2.34 1.37 2.53 0 4.18-.22 5.11-1.02.94-.8 1.62-2.56 2.09-5.36h1.07l-.41 7.62h-16.08z" fill="#00205c"/><path d="m111.71 239.72c1.76-2.01 4.12-3.05 6.87-3.05 2.8 0 5 .99 6.82 3.02 1.73 1.95 2.61 4.43 2.61 7.4 0 2.94-.71 5.22-2.42 7.2-1.84 2.14-4.15 3.19-7.01 3.19s-5.14-1.02-7.01-3.19c-1.7-1.98-2.45-4.29-2.45-7.2 0-2.94.91-5.47 2.59-7.37zm6.87 16.52c3.96 0 5.88-3.05 5.88-9.16 0-6.16-1.84-9.16-5.88-9.16-3.99 0-5.88 3-5.88 9.16 0 6.14 1.87 9.16 5.88 9.16z" fill="#00205c"/><path d="m130.56 255.72h1.43c1.1 0 1.46-.25 1.46-1.32v-14.63c0-1.07-.36-1.32-1.46-1.32h-1.43v-1.29h16.09l.36 7.01h-1.18c-.36-2.42-1.07-4.01-1.92-4.76-.96-.8-2.58-1.02-5.11-1.02-1.81 0-2.34.08-2.34 1.37v6.3h.39c2.83 0 3.9-.93 4.15-3.79h1.15v8.74h-1.15c-.25-2.86-1.29-3.77-4.15-3.77-.11 0-.25 0-.39 0v7.15c0 1.07.33 1.32 1.43 1.32h1.81v1.29h-9.13v-1.28z" fill="#00205c"/><path d="m157.47 255.72h1.43c1.1 0 1.46-.25 1.46-1.32v-14.63c0-1.07-.36-1.32-1.46-1.32h-1.43v-1.29h16.09l.36 7.01h-1.18c-.36-2.42-1.07-4.01-1.92-4.76-.96-.8-2.59-1.02-5.11-1.02-1.81 0-2.34.08-2.34 1.37v6.3h.38c2.83 0 3.9-.93 4.15-3.79h1.16v8.74h-1.16c-.25-2.86-1.29-3.77-4.15-3.77-.11 0-.25 0-.38 0v7.15c0 1.07.33 1.32 1.43 1.32h1.82v1.29h-9.13v-1.28z" fill="#00205c"/><path d="m182.82 236.83 7.01 17.52c.44 1.07.77 1.38 1.9 1.38.16 0 .36-.03.55-.03v1.32h-8.22v-1.32h1.04c1.15 0 1.68-.08 1.68-.72 0-.22-.08-.55-.25-.96l-1.26-3.46h-7.4l-.85 2.14c-.25.63-.38 1.29-.38 1.65 0 .88.69 1.35 2.01 1.35h.69v1.32h-7.09v-1.32h.22c1.62 0 2.17-.63 2.83-2.31l6.46-16.55h1.06zm-1.32 4.35-3.13 7.97h6.41z" fill="#00205c"/><path d="m197.58 252.31c0 2.61.58 3.49 3.27 3.52v1.18h-7.97v-1.18c2.78-.03 3.3-.94 3.3-3.52v-12.54c0-1.07-.36-1.32-1.46-1.32h-1.62v-1.29h6.87l5.33 15.18 5.17-15.18h6.71v1.29h-1.46c-1.1 0-1.43.25-1.43 1.32v14.63c0 1.07.33 1.32 1.43 1.32h1.46v1.29h-8.91v-1.29h1.65c1.1 0 1.46-.25 1.46-1.32v-15.48l-6.16 18.09h-1.07l-6.57-18.09z" fill="#00205c"/><path d="m219.59 255.72h1.43c1.1 0 1.46-.25 1.46-1.32v-14.63c0-1.07-.36-1.32-1.46-1.32h-1.43v-1.29h16.09l.36 7.01h-1.18c-.36-2.42-1.07-4.01-1.92-4.76-.96-.8-2.58-1.02-5.11-1.02-1.81 0-2.34.08-2.34 1.37v6.3h.38c2.83 0 3.9-.93 4.15-3.79h1.15v8.74h-1.15c-.25-2.86-1.29-3.77-4.15-3.77-.11 0-.25 0-.38 0v7.15c0 1.35.6 1.4 2.56 1.4 2.31 0 3.96-.17 5.06-.71 1.27-.63 2.01-2.48 2.59-5.61h1.04l-.41 7.53h-16.72v-1.28z" fill="#00205c"/><path d="m19.97 44.26h216.79v26.37h-216.79z" fill="#00205c"/><path d="m33.43 46.99 2.04 8.75 8.95-.77-7.69 4.64 3.49 8.28-6.79-5.88-6.79 5.88 3.5-8.28-7.69-4.64 8.94.77z" fill="#fff"/><path d="m80.97 46.99 2.04 8.75 8.94-.77-7.68 4.64 3.49 8.28-6.79-5.88-6.79 5.88 3.49-8.28-7.69-4.64 8.95.77z" fill="#fff"/><path d="m128.43 46.99 2.04 8.75 8.95-.77-7.69 4.64 3.49 8.28-6.79-5.88-6.79 5.88 3.5-8.28-7.69-4.64 8.94.77z" fill="#fff"/><path d="m175.89 46.99 2.04 8.75 8.95-.77-7.69 4.64 3.49 8.28-6.79-5.88-6.79 5.88 3.5-8.28-7.69-4.64 8.95.77z" fill="#fff"/><path d="m223.3 46.99 2.04 8.75 8.95-.77-7.69 4.64 3.49 8.28-6.79-5.88-6.78 5.88 3.49-8.28-7.69-4.64 8.95.77z" fill="#fff"/><ellipse cx="128.82" cy="166.01" fill="#fff" rx="60.23" ry="60.23" transform="matrix(.9669 -.2551 .2551 .9669 -38.0865 38.3511)"/><g fill="#c10230"><path d="m128.82 227.23c-33.76 0-61.22-27.46-61.22-61.22s27.46-61.22 61.22-61.22 61.22 27.46 61.22 61.22c-.01 33.76-27.47 61.22-61.22 61.22zm0-120.45c-32.66 0-59.24 26.57-59.24 59.24 0 32.66 26.57 59.24 59.24 59.24 32.66 0 59.24-26.57 59.24-59.24-.01-32.67-26.58-59.24-59.24-59.24z"/><path d="m76.93 140.27c-.36 0-.71-.2-.88-.54-.25-.49-.06-1.08.43-1.33l5.49-2.81c.49-.25 1.08-.06 1.33.43s.06 1.08-.43 1.33l-5.49 2.81c-.15.08-.3.11-.45.11z"/><path d="m82.03 136.69c-.2 0-.41-.06-.58-.19-.44-.32-.54-.94-.22-1.38l3.83-5.25c.32-.44.94-.54 1.38-.22s.54.94.22 1.38l-3.83 5.25c-.2.27-.5.41-.8.41z"/><path d="m159.96 121.18c-.3 0-.59-.13-.79-.39l-3.69-4.79c-.33-.43-.25-1.05.18-1.39s1.05-.25 1.39.18l3.69 4.79c.33.43.25 1.05-.18 1.39-.18.14-.39.21-.6.21z"/><path d="m154.94 123.45c-.25 0-.5-.09-.69-.28l-4.45-4.32c-.39-.38-.4-1.01-.02-1.4s1.01-.4 1.4-.02l4.45 4.32c.39.38.4 1.01.02 1.4-.2.2-.46.3-.71.3z"/><path d="m149.14 125.6c-.2 0-.41-.06-.58-.19l-4.79-3.5c-.44-.32-.54-.94-.22-1.38s.94-.54 1.38-.22l4.79 3.5c.44.32.54.94.22 1.38-.19.27-.49.41-.8.41z"/><path d="m78.78 144.62c-.41 0-.79-.25-.93-.66-.18-.52.09-1.08.6-1.26l5.49-1.93c.51-.18 1.08.09 1.26.6.18.52-.09 1.08-.6 1.26l-5.49 1.93c-.11.04-.22.06-.33.06z"/><path d="m83.4 142.47c-.21 0-.41-.06-.59-.2-.44-.33-.53-.95-.2-1.39l4.31-5.8c.33-.44.95-.53 1.39-.2s.53.95.2 1.39l-4.31 5.81c-.2.25-.5.39-.8.39z"/><path d="m79.55 149.46c-.49 0-.92-.36-.98-.86-.07-.54.31-1.04.85-1.11l5.7-.75c.54-.07 1.04.31 1.11.85s-.31 1.04-.85 1.11l-5.7.75c-.04.01-.09.01-.13.01z"/><path d="m84.5 148.15c-.24 0-.49-.09-.68-.27-.4-.37-.42-1-.04-1.4l4.76-5.08c.37-.4 1-.42 1.4-.05s.42 1 .04 1.4l-4.76 5.08c-.19.21-.45.32-.72.32z"/><path d="m86.22 154.83h-.01l-5.7-.08c-.55-.01-.98-.46-.98-1 .01-.54.45-.98.99-.98h.01l5.7.08c.55.01.98.46.98 1-.01.55-.45.98-.99.98z"/><path d="m85.42 153.92c-.26 0-.51-.1-.71-.3-.38-.39-.38-1.02.01-1.4l4.8-4.73c.39-.38 1.02-.38 1.4.01s.38 1.02-.01 1.4l-4.8 4.73c-.19.2-.44.29-.69.29z"/><path d="m86.9 161.21c-.05 0-.1 0-.16-.01l-5.63-.9c-.54-.09-.91-.59-.82-1.13s.59-.91 1.13-.82l5.63.9c.54.09.91.59.82 1.13-.07.48-.49.83-.97.83z"/><path d="m85.51 160.53c-.29 0-.58-.13-.78-.38-.34-.43-.27-1.05.16-1.39l5.52-4.35c.43-.34 1.05-.27 1.39.16s.27 1.05-.16 1.39l-5.52 4.35c-.18.15-.39.22-.61.22z"/><path d="m87.05 166.56c-.05 0-.1 0-.15-.01l-5.74-.9c-.54-.08-.91-.59-.82-1.13s.59-.91 1.13-.82l5.74.9c.54.08.91.59.82 1.13-.08.48-.5.83-.98.83z"/><path d="m87.7 165.03c-.34 0-.67-.17-.85-.49-.28-.47-.12-1.08.35-1.36l4.77-2.82c.47-.28 1.08-.12 1.36.35s.12 1.08-.35 1.36l-4.77 2.82c-.16.1-.33.14-.51.14z"/><path d="m86.59 172c-.08 0-.17-.01-.26-.03l-5.41-1.44c-.53-.14-.84-.68-.7-1.21s.68-.85 1.21-.7l5.41 1.44c.53.14.84.68.7 1.21-.12.44-.52.73-.95.73z"/><path d="m87.15 170.31c-.42 0-.8-.26-.94-.68-.17-.52.11-1.08.63-1.25l5.48-1.8c.52-.17 1.08.11 1.25.63s-.11 1.08-.63 1.25l-5.48 1.8c-.1.03-.21.05-.31.05z"/><path d="m86.24 177.98c-.1 0-.21-.02-.32-.05l-5.41-1.83c-.52-.17-.8-.74-.62-1.25.17-.52.74-.8 1.26-.62l5.41 1.83c.52.17.8.74.62 1.25-.14.41-.52.67-.94.67z"/><path d="m86.4 176.12c-.48 0-.9-.35-.98-.83-.09-.54.28-1.05.82-1.14l5.95-.97c.54-.09 1.05.28 1.14.82s-.28 1.05-.82 1.14l-5.95.97c-.05 0-.1.01-.16.01z"/><path d="m85.66 184c-.1 0-.21-.02-.32-.05l-5.41-1.83c-.52-.17-.8-.74-.62-1.25.18-.52.73-.8 1.26-.62l5.41 1.83c.52.17.8.74.62 1.25-.14.41-.53.67-.94.67z"/><path d="m85.22 182.63c-.47 0-.89-.33-.97-.81-.1-.54.26-1.05.8-1.15l6.23-1.13c.53-.11 1.05.26 1.15.8s-.26 1.05-.8 1.15l-6.23 1.13c-.07.01-.13.01-.18.01z"/><path d="m84.94 190.27c-.18 0-.36-.05-.52-.15l-4.84-3.02c-.46-.29-.61-.9-.32-1.36s.9-.61 1.36-.32l4.84 3.02c.46.29.61.9.32 1.36-.19.3-.51.47-.84.47z"/><path d="m84.05 189.36c-.47 0-.89-.33-.97-.81-.1-.54.26-1.05.8-1.15l6.23-1.13c.54-.11 1.05.26 1.15.8s-.26 1.05-.8 1.15l-6.23 1.13c-.07.01-.12.01-.18.01z"/><path d="m83.03 196.84c-.24 0-.48-.09-.67-.26l-4.2-3.86c-.4-.37-.43-1-.06-1.4s1-.43 1.4-.06l4.2 3.86c.4.37.43 1 .06 1.4-.2.21-.47.32-.73.32z"/><path d="m82.95 195.97c-.47 0-.88-.33-.97-.81-.1-.54.25-1.05.79-1.16l5.68-1.07c.53-.1 1.06.25 1.16.79s-.25 1.05-.79 1.16l-5.68 1.07c-.07.02-.13.02-.19.02z"/><path d="m156.28 117.17c-.09 0-.18-.01-.27-.04l-7.12-2.03c-.53-.15-.83-.7-.68-1.22.15-.53.7-.83 1.22-.68l7.12 2.03c.53.15.83.7.68 1.22-.12.43-.52.72-.95.72z"/><path d="m150.14 119.59c-.07 0-.13-.01-.2-.02l-6.79-1.38c-.54-.11-.88-.63-.77-1.17s.63-.89 1.17-.77l6.79 1.38c.54.11.88.63.77 1.17-.09.47-.51.79-.97.79z"/><path d="m143.39 122.74c-.02 0-.03 0-.05 0l-6.47-.33c-.55-.03-.97-.49-.94-1.04s.5-.97 1.04-.94l6.47.33c.55.03.97.49.94 1.04-.03.53-.47.94-.99.94z"/><path d="m145.03 129.85c-.19 0-.39-.06-.56-.18l-5.07-3.5c-.45-.31-.56-.93-.25-1.38s.93-.56 1.38-.25l5.07 3.5c.45.31.56.93.25 1.38-.2.28-.51.43-.82.43z"/><path d="m140.62 134.22c-.2 0-.4-.06-.58-.19l-4.63-3.34c-.44-.32-.54-.94-.22-1.38s.94-.54 1.38-.22l4.63 3.34c.44.32.54.94.22 1.38-.19.27-.49.41-.8.41z"/><path d="m139.17 126.87c-.01 0-.02 0-.04 0l-6.36-.22c-.55-.02-.97-.48-.95-1.02s.44-.98 1.02-.95l6.36.22c.55.02.97.48.95 1.02-.01.53-.45.95-.98.95z"/><path d="m134.72 131.98c-.01 0-.02 0-.03 0l-5.7-.17c-.55-.02-.98-.47-.96-1.02s.46-.95 1.02-.96l5.7.17c.55.02.98.47.96 1.02-.01.53-.45.96-.99.96z"/><path d="m137.56 138.43c-.14 0-.28-.03-.41-.09l-5.19-2.36c-.5-.23-.72-.81-.49-1.31s.81-.72 1.31-.49l5.19 2.36c.5.23.72.81.49 1.31-.17.37-.53.58-.9.58z"/><path d="m131.36 137.79c-.01 0-.02 0-.03 0l-5.7-.17c-.55-.02-.98-.47-.96-1.02s.46-.95 1.02-.96l5.7.17c.55.02.98.47.96 1.02-.02.53-.46.96-.99.96z"/><path d="m135.49 145.25c-.14 0-.28-.03-.41-.09l-5.19-2.36c-.5-.23-.72-.81-.49-1.31s.81-.72 1.31-.49l5.19 2.36c.5.23.72.81.49 1.31-.16.37-.52.58-.9.58z"/><path d="m129.29 144.66c-.01 0-.02 0-.03 0l-5.7-.17c-.55-.02-.98-.47-.96-1.02s.46-1.01 1.02-.96l5.7.17c.55.02.98.47.96 1.02-.01.54-.45.96-.99.96z"/><path d="m134.33 151.83c-.14 0-.28-.03-.41-.09l-5.19-2.36c-.5-.23-.72-.81-.49-1.31s.81-.72 1.31-.49l5.19 2.36c.5.23.72.81.49 1.31-.17.36-.53.58-.9.58z"/><path d="m127.85 151.02c-.01 0-.02 0-.03 0l-5.7-.17c-.55-.02-.98-.47-.96-1.02s.47-.99 1.02-.96l5.7.17c.55.02.98.47.96 1.02-.02.53-.46.96-.99.96z"/><path d="m133.51 158.27c-.14 0-.28-.03-.41-.09l-5.19-2.36c-.5-.23-.72-.81-.49-1.31s.81-.72 1.31-.49l5.19 2.36c.5.23.72.81.49 1.31-.16.37-.52.58-.9.58z"/><path d="m121.08 157.96c-.49 0-.91-.36-.98-.86-.07-.54.31-1.04.85-1.11l5.65-.77c.54-.07 1.04.31 1.11.85s-.31 1.04-.85 1.11l-5.65.77c-.04.01-.09.01-.13.01z"/><path d="m132.66 165.35c-.14 0-.28-.03-.41-.09l-5.19-2.36c-.5-.23-.72-.81-.49-1.31s.81-.72 1.31-.49l5.19 2.36c.5.23.72.81.49 1.31-.16.37-.52.58-.9.58z"/><path d="m120.52 165.7c-.44 0-.85-.3-.96-.75-.13-.53.19-1.07.72-1.2l5.53-1.4c.53-.14 1.07.19 1.2.72s-.19 1.07-.72 1.2l-5.53 1.4c-.08.02-.16.03-.24.03z"/><path d="m133.45 171.1c-.07 0-.14-.01-.21-.02l-5.57-1.23c-.53-.12-.87-.65-.75-1.18s.65-.87 1.18-.75l5.57 1.23c.53.12.87.65.75 1.18-.11.45-.52.77-.97.77z"/><path d="m121.17 173.13c-.39 0-.77-.24-.92-.63-.2-.51.05-1.08.56-1.29l5.31-2.1c.51-.2 1.08.05 1.28.56s-.05 1.08-.56 1.29l-5.31 2.1c-.11.05-.24.07-.36.07z"/><path d="m135.07 177.8c-.07 0-.14-.01-.21-.02l-5.74-1.23c-.53-.11-.88-.64-.76-1.17.11-.53.63-.88 1.18-.76l5.74 1.23c.53.11.88.64.76 1.17-.1.46-.52.78-.97.78z"/><path d="m123.68 180.72c-.33 0-.66-.17-.85-.48-.28-.47-.14-1.08.33-1.36l4.88-2.96c.47-.28 1.08-.13 1.36.33.28.47.14 1.08-.33 1.36l-4.88 2.96c-.16.1-.34.15-.51.15z"/><path d="m137.2 183.05c-.03 0-.05 0-.08 0l-6.34-.5c-.54-.04-.95-.52-.91-1.07s.52-.95 1.07-.91l6.34.5c.54.04.95.52.91 1.07-.04.52-.47.91-.99.91z"/><path d="m125.74 186.46c-.34 0-.66-.17-.85-.48-.28-.47-.13-1.08.34-1.36l5.79-3.48c.47-.28 1.08-.13 1.36.34s.13 1.08-.34 1.36l-5.79 3.48c-.16.1-.34.14-.51.14z"/><path d="m140.09 188.17c-.03 0-.05 0-.08 0l-6.23-.5c-.54-.04-.95-.52-.91-1.07.04-.54.53-.96 1.07-.91l6.23.5c.54.04.95.52.91 1.07-.04.52-.48.91-.99.91z"/><path d="m129.29 192.02c-.31 0-.61-.14-.81-.42-.32-.45-.21-1.06.23-1.38l5.59-3.98c.45-.32 1.06-.21 1.38.23.32.45.21 1.06-.23 1.38l-5.59 3.98c-.17.13-.37.19-.57.19z"/><path d="m143.08 193.04c-.01 0-.03 0-.04 0l-6.56-.28c-.55-.02-.97-.49-.95-1.03.02-.55.48-.95 1.03-.95l6.56.28c.55.02.97.49.95 1.03s-.46.95-.99.95z"/><path d="m133.61 197.67c-.21 0-.42-.07-.6-.2-.44-.33-.52-.95-.19-1.39l3.45-4.54c.33-.44.95-.52 1.39-.19s.52.95.19 1.39l-3.45 4.54c-.19.26-.49.39-.79.39z"/><path d="m146.76 197.12c-.02 0-.04 0-.05 0l-6.23-.34c-.55-.03-.96-.5-.93-1.04.03-.55.5-.96 1.04-.93l6.23.34c.55.03.96.5.93 1.04-.03.52-.47.93-.99.93z"/><path d="m138.66 202.73c-.13 0-.27-.03-.4-.08-.5-.22-.73-.8-.51-1.3l2.29-5.22c.22-.5.8-.73 1.3-.51s.73.8.51 1.3l-2.29 5.22c-.16.36-.52.59-.9.59z"/><path d="m144.29 200.94c-.5 0-.93-.38-.98-.89-.05-.54.34-1.03.89-1.08l6.47-.63c.54-.05 1.03.34 1.08.89.05.54-.34 1.03-.89 1.08l-6.47.63c-.04-.01-.07 0-.1 0z"/><path d="m144.1 206.69c-.04 0-.07 0-.11-.01-.54-.06-.93-.55-.87-1.09l.63-5.64c.06-.54.55-.95 1.09-.87.54.06.93.55.87 1.09l-.63 5.64c-.05.51-.48.88-.98.88z"/><path d="m148.71 204.37c-.44 0-.84-.3-.96-.74-.14-.53.18-1.07.71-1.21l5.61-1.45c.53-.13 1.07.18 1.21.71s-.18 1.07-.71 1.21l-5.61 1.45c-.09.02-.17.03-.25.03z"/><path d="m149.49 210.02c-.52 0-.96-.41-.99-.93l-.28-5.04c-.03-.55.39-1.01.93-1.04.54-.04 1.01.39 1.04.93l.28 5.04c.03.55-.39 1.01-.93 1.04-.01 0-.03 0-.05 0z"/><path d="m154.38 206.06c-.45 0-.85-.31-.96-.76-.13-.53.2-1.07.73-1.19l5.6-1.34c.53-.13 1.06.2 1.19.73s-.2 1.07-.73 1.19l-5.6 1.34c-.08.02-.15.03-.23.03z"/><path d="m155.22 212.37c-.52 0-.96-.41-.99-.93l-.34-5.7c-.03-.55.38-1.01.93-1.05.54-.03 1.01.38 1.05.93l.34 5.7c.03.55-.38 1.01-.93 1.05-.02 0-.05 0-.06 0z"/><path d="m159.81 207.67c-.45 0-.85-.31-.96-.76-.13-.53.2-1.07.73-1.19l5.6-1.34c.53-.13 1.07.2 1.19.73.13.53-.2 1.07-.73 1.19l-5.6 1.34c-.07.02-.15.03-.23.03z"/><path d="m160.65 213.43c-.52 0-.96-.41-.99-.93l-.34-5.7c-.03-.55.38-1.01.93-1.05.54-.02 1.01.38 1.05.93l.34 5.7c.03.55-.38 1.01-.93 1.05-.02 0-.04 0-.06 0z"/><path clip-path="url(#a)" d="m73.89 136.92c-.39 0-.75-.23-.91-.6-.21-.5.02-1.08.53-1.3l5.49-2.32c.5-.21 1.08.02 1.3.53.21.5-.02 1.08-.53 1.3l-5.49 2.32c-.13.05-.26.07-.39.07z"/><path clip-path="url(#a)" d="m78.99 133.84c-.2 0-.41-.06-.58-.19-.44-.32-.54-.94-.22-1.38l3.83-5.25c.32-.44.94-.54 1.38-.22s.54.94.22 1.38l-3.83 5.25c-.19.27-.5.41-.8.41z"/><path clip-path="url(#a)" d="m81.72 202.12c-.24 0-.48-.09-.67-.26l-4.2-3.86c-.4-.37-.43-1-.06-1.4s1-.43 1.4-.06l4.2 3.86c.4.37.43 1 .06 1.4-.2.21-.46.32-.73.32z"/><path clip-path="url(#a)" d="m82.39 201.68c-.51 0-.95-.4-.99-.92-.04-.54.37-1.02.91-1.06l4.7-.35c.55-.04 1.02.37 1.06.91s-.37 1.02-.91 1.06l-4.7.35c-.02.01-.04.01-.07.01z"/><path clip-path="url(#a)" d="m83.31 206.45c-.54 0-.98-.43-.99-.98s.43-1 .98-1l3.12-.05c.51 0 1 .43 1 .98s-.43 1-.98 1l-3.12.05z"/><path clip-path="url(#a)" d="m162.68 118.44c-.3 0-.59-.13-.79-.39l-3.69-4.79c-.33-.43-.25-1.05.18-1.39.43-.33 1.05-.25 1.39.18l3.69 4.79c.33.43.25 1.05-.18 1.39-.17.14-.38.21-.6.21z"/><path clip-path="url(#a)" d="m159 114.43c-.09 0-.18-.01-.27-.04l-7.12-2.03c-.53-.15-.83-.7-.68-1.22.15-.53.7-.83 1.22-.68l7.12 2.03c.53.15.83.7.68 1.22-.12.43-.51.72-.95.72z"/><path clip-path="url(#a)" d="m165.31 209.39c-.44 0-.84-.3-.96-.75-.14-.53.18-1.07.71-1.2l6.74-1.72c.53-.14 1.07.18 1.2.71.14.53-.18 1.07-.71 1.2l-6.74 1.72c-.08.03-.16.04-.24.04z"/><path clip-path="url(#a)" d="m166.15 214.31c-.51 0-.95-.39-.99-.91l-.34-4.31c-.04-.54.36-1.02.91-1.07.54-.04 1.02.36 1.07.91l.34 4.31c.04.54-.36 1.02-.91 1.07-.03 0-.06 0-.08 0z"/></g><path d="m240.28 265.06c-2.08 0-3.77-1.69-3.77-3.78 0-2.08 1.69-3.77 3.77-3.77s3.77 1.69 3.77 3.77c0 2.09-1.69 3.78-3.77 3.78zm0-6.8c-1.67 0-3.02 1.36-3.02 3.02s1.36 3.03 3.02 3.03 3.02-1.36 3.02-3.03-1.36-3.02-3.02-3.02z" fill="#00205c"/><path d="m239.46 263.23h-.68v-4.25h2.18l.44.18.25.32.25.31.06.44-.06.43-.25.44-.31.25-.25.13 1.06 1.75h-.81l-1-1.57h-.88z" fill="#00205c"/><path d="m240.78 260.91h-1.25v-1.18h1.25l.25.12.18.25v.31l-.12.25z" fill="#fefefe"/></svg>