<?xml version="1.0" encoding="UTF-8" standalone="no"?>
<!-- Created with Inkscape (http://www.inkscape.org/) -->

<svg
   xmlns:dc="http://purl.org/dc/elements/1.1/"
   xmlns:cc="http://creativecommons.org/ns#"
   xmlns:rdf="http://www.w3.org/1999/02/22-rdf-syntax-ns#"
   xmlns:svg="http://www.w3.org/2000/svg"
   xmlns="http://www.w3.org/2000/svg"
   xmlns:sodipodi="http://sodipodi.sourceforge.net/DTD/sodipodi-0.dtd"
   xmlns:inkscape="http://www.inkscape.org/namespaces/inkscape"
   width="14.087069mm"
   height="27.217791mm"
   viewBox="0 0 14.087069 27.217791"
   version="1.1"
   id="svg1066"
   inkscape:version="0.92.4 (5da689c313, 2019-01-14)"
   sodipodi:docname="Betty Boop, April 1932.svg">
  <title
     id="title1095">Betty Boop, April 1932</title>
  <defs
     id="defs1060" />
  <sodipodi:namedview
     id="base"
     pagecolor="#ffffff"
     bordercolor="#666666"
     borderopacity="1.0"
     inkscape:pageopacity="0.0"
     inkscape:pageshadow="2"
     inkscape:zoom="1.0944672"
     inkscape:cx="209.24217"
     inkscape:cy="342.79598"
     inkscape:document-units="mm"
     inkscape:current-layer="layer1"
     showgrid="false"
     fit-margin-top="0"
     fit-margin-left="0"
     fit-margin-right="0"
     fit-margin-bottom="0"
     inkscape:window-width="1920"
     inkscape:window-height="986"
     inkscape:window-x="-11"
     inkscape:window-y="-11"
     inkscape:window-maximized="1" />
  <metadata
     id="metadata1063">
    <rdf:RDF>
      <cc:Work
         rdf:about="">
        <dc:format>image/svg+xml</dc:format>
        <dc:type
           rdf:resource="http://purl.org/dc/dcmitype/StillImage" />
        <dc:title>Betty Boop, April 1932</dc:title>
        <cc:license
           rdf:resource="http://creativecommons.org/publicdomain/zero/1.0/" />
      </cc:Work>
      <cc:License
         rdf:about="http://creativecommons.org/publicdomain/zero/1.0/">
        <cc:permits
           rdf:resource="http://creativecommons.org/ns#Reproduction" />
        <cc:permits
           rdf:resource="http://creativecommons.org/ns#Distribution" />
        <cc:permits
           rdf:resource="http://creativecommons.org/ns#DerivativeWorks" />
      </cc:License>
    </rdf:RDF>
  </metadata>
  <g
     inkscape:label="Layer 1"
     inkscape:groupmode="layer"
     id="layer1"
     transform="translate(-184.8478,-187.52687)">
    <path
       style="fill:#000000;stroke-width:1"
       d="m 193.33569,187.52693 c -0.19483,-0.002 -0.29615,0.0464 -0.20116,0.10879 0.0328,0.0216 0.0992,0.0395 0.14743,0.0398 0.25243,0.002 0.43097,0.24024 0.31376,0.41912 -0.0897,0.13685 -0.23172,0.16045 -0.60014,0.0997 -0.54808,-0.0904 -1.15752,-0.0981 -1.42213,-0.018 -0.12674,0.0384 -0.23048,0.0903 -0.23048,0.11547 0,0.0252 0.0711,0.0772 0.15809,0.11555 0.19669,0.0868 0.65323,0.39287 0.8324,0.55808 0.4904,0.45218 0.95103,1.25896 1.05977,1.85633 0.0912,0.50073 0.0962,0.51709 0.15925,0.51709 0.032,0 0.17941,-0.0874 0.32768,-0.19424 0.30393,-0.21894 0.45028,-0.26079 0.63785,-0.18242 0.1031,0.0431 0.12939,0.0771 0.12939,0.16757 0,0.14696 -0.0654,0.20909 -0.22029,0.20909 -0.15002,0 -0.19253,0.0339 -0.13281,0.10583 0.10936,0.13178 0.49629,0.0299 0.69275,-0.18242 0.17845,-0.19284 0.32149,-0.25493 0.52371,-0.22721 0.48974,0.0671 0.8885,0.48443 0.90254,0.94446 0.005,0.14992 -0.0141,0.20996 -0.0907,0.29159 -0.15056,0.16039 -0.32153,0.11557 -0.32153,-0.0843 0,-0.12372 -0.10886,-0.11846 -0.16649,0.008 -0.0595,0.13065 0.009,0.28588 0.14876,0.33918 0.0565,0.0215 0.19671,0.028 0.31158,0.0145 0.16572,-0.0195 0.22271,-0.0107 0.27596,0.0425 0.20002,0.20001 0.10519,0.56 -0.44004,1.67072 l -0.42837,0.87261 0.002,0.4213 c 0.002,0.33831 0.0233,0.49153 0.10948,0.77789 0.13151,0.43708 0.14119,0.79909 0.028,1.0485 -0.12521,0.27588 -0.49059,0.62933 -0.75154,0.72697 -0.23657,0.0885 -0.95476,0.18555 -1.51808,0.20512 l -0.33841,0.0117 0.0161,-0.11943 c 0.0342,-0.25404 0.025,-0.31612 -0.0495,-0.33102 -0.0403,-0.008 -0.11618,0.0257 -0.16866,0.075 l -0.0954,0.0897 -0.0997,-0.10762 c -0.12856,-0.13871 -0.2254,-0.0939 -0.33553,0.15505 -0.0435,0.0983 -0.0935,0.17894 -0.11112,0.17939 -1.06473,0.0268 -1.39174,0.0434 -1.80376,0.0918 -0.50312,0.0591 -0.81823,0.0447 -0.98233,-0.045 -0.0476,-0.026 -0.1416,-0.1435 -0.20893,-0.26119 -0.0673,-0.11769 -0.19412,-0.28352 -0.28172,-0.3685 -0.14145,-0.13721 -0.15922,-0.17551 -0.15925,-0.34221 -3e-5,-0.15184 0.0228,-0.21376 0.11936,-0.32379 0.0657,-0.0748 0.11943,-0.14529 0.11943,-0.15661 0,-0.0113 -0.0724,-0.0583 -0.16104,-0.1045 -0.2276,-0.11864 -0.47976,-0.0359 -0.68948,0.2262 -0.0719,0.0898 -0.0767,0.0904 -0.15404,0.0209 -0.16449,-0.14779 -0.55013,-0.65333 -0.52697,-0.6908 0.0132,-0.0214 0.0966,-0.076 0.1853,-0.12123 0.14125,-0.0721 0.20238,-0.0787 0.49423,-0.0544 l 0.33312,0.0277 0.14004,-0.13996 c 0.077,-0.077 0.13997,-0.17618 0.13997,-0.22037 0,-0.0442 0.0109,-0.10868 0.0242,-0.14331 0.0154,-0.0402 0.003,-0.063 -0.0355,-0.063 -0.0328,0 -0.0719,0.0492 -0.087,0.10925 -0.0429,0.17077 -0.0967,0.20925 -0.29252,0.20925 -0.21243,0 -0.45479,-0.14463 -0.5496,-0.32798 -0.079,-0.15276 -0.11115,-0.45581 -0.0666,-0.62752 0.0282,-0.10847 0.0753,-0.15992 0.21305,-0.2321 0.25655,-0.13449 0.35606,-0.24032 0.35606,-0.37884 0,-0.12719 -0.0966,-0.26493 -0.18576,-0.26493 -0.0404,0 -0.0479,0.0387 -0.0294,0.1542 0.0279,0.17416 -0.0157,0.22471 -0.1622,0.18794 -0.16013,-0.0402 -0.33452,-0.21664 -0.36275,-0.3671 -0.0457,-0.24342 0.16265,-1.12259 0.34782,-1.468 0.14148,-0.26392 0.22918,-0.33841 0.39843,-0.33841 0.23785,0 0.45923,-0.10621 0.50699,-0.24323 0.0427,-0.12249 0.0228,-0.23452 -0.0417,-0.23452 -0.0207,0 -0.0558,0.0519 -0.0779,0.1154 -0.0642,0.18426 -0.29239,0.2032 -0.33639,0.0279 -0.0359,-0.14294 0.0444,-0.28254 0.27869,-0.48482 0.49368,-0.42622 1.16401,-0.54645 1.43301,-0.257 0.0591,0.0636 0.1587,0.17054 0.22131,0.23763 0.0892,0.0956 0.1472,0.12201 0.26811,0.12201 0.14562,0 0.24991,-0.0539 0.24991,-0.12924 0,-0.0185 -0.0594,-0.0225 -0.13195,-0.009 -0.0959,0.018 -0.14663,0.007 -0.18569,-0.04 -0.0757,-0.0912 -0.009,-0.33128 0.11858,-0.42503 0.2459,-0.18116 1.03912,-0.19836 1.43426,-0.0311 0.11989,0.0507 0.33425,0.16937 0.47635,0.26368 0.14209,0.0943 0.29756,0.17153 0.34548,0.17153 0.0754,0 0.0907,-0.0286 0.11361,-0.21212 0.0325,-0.25976 -0.0584,-0.58176 -0.30132,-1.06747 -0.39799,-0.79583 -1.11866,-1.42991 -1.98875,-1.7498 -0.23312,-0.0857 -0.31802,-0.0946 -0.85597,-0.0903 -0.44363,0.004 -0.69911,0.0266 -0.99352,0.0896 -0.34543,0.0738 -0.4037,0.0773 -0.4538,0.0272 -0.048,-0.048 -0.0491,-0.0777 -0.007,-0.17954 0.0278,-0.0671 0.0753,-0.12425 0.10544,-0.12698 0.10858,-0.01 0.12829,-0.0154 0.15676,-0.0439 0.0159,-0.0159 0.006,-0.057 -0.0229,-0.0914 -0.0575,-0.0693 -0.21634,-0.0512 -0.40707,0.0463 -0.13175,0.0673 -0.26863,0.32065 -0.27036,0.50038 -0.002,0.18151 -0.0488,0.22991 -0.45707,0.47044 -0.58715,0.34589 -1.16979,0.97194 -1.45945,1.56816 -0.048,0.0988 -0.1123,0.18917 -0.14292,0.20092 -0.0941,0.0361 -0.24425,-0.022 -0.27052,-0.10481 -0.0355,-0.11194 0.013,-0.27185 0.0826,-0.27185 0.0324,0 0.0589,-0.0179 0.0589,-0.0398 0,-0.10303 -0.36113,0.0172 -0.46655,0.15536 -0.0612,0.0802 -0.065,0.33996 -0.007,0.45434 0.0244,0.0478 0.10693,0.17952 0.18343,0.29261 0.12046,0.17808 0.1364,0.22874 0.11866,0.37822 -0.10257,0.86421 -0.11462,1.14041 -0.0659,1.51388 0.0452,0.34654 0.0435,0.39613 -0.0161,0.48708 -0.0875,0.13348 -0.22571,0.16438 -0.37954,0.0848 -0.12137,-0.0628 -0.1403,-0.10744 -0.1248,-0.2944 0.006,-0.071 -0.01,-0.0897 -0.0652,-0.0787 -0.0622,0.0123 -0.073,0.0544 -0.073,0.2853 0,0.26034 0.006,0.27602 0.14393,0.40279 0.0896,0.0822 0.23228,0.15649 0.37822,0.19719 0.34913,0.0974 0.41017,0.13066 0.46072,0.2514 0.0253,0.0605 0.11462,0.2604 0.19844,0.44408 0.16925,0.37091 0.18313,0.46183 0.0865,0.56857 -0.11358,0.12551 -0.29245,0.0678 -0.29245,-0.0944 0,-0.0954 -0.0663,-0.0911 -0.1192,0.008 -0.0317,0.0592 -0.0277,0.10781 0.0159,0.19198 0.0999,0.19315 0.16016,0.22067 0.41267,0.18802 0.45462,-0.0588 0.63805,-0.0149 0.81327,0.19463 0.20798,0.24869 -0.0796,0.47532 -0.30061,0.23693 -0.11299,-0.12185 -0.18499,-0.0972 -0.18499,0.0635 0,0.14489 0.19756,0.31974 0.36134,0.31974 0.064,0 0.11568,0.0134 0.11493,0.0299 -8.3e-4,0.0164 -0.0854,0.0926 -0.18802,0.1692 -0.60503,0.45198 -1.06786,1.13736 -1.06187,1.57259 0.007,0.48614 0.48558,0.88111 0.87237,0.7195 0.19098,-0.0798 0.41993,-0.32456 0.53514,-0.57215 0.053,-0.11391 0.10792,-0.20707 0.12208,-0.20707 0.0142,0 0.0562,0.0966 0.0935,0.21477 0.0372,0.11813 0.15692,0.33721 0.26601,0.48685 0.10909,0.14964 0.19836,0.28323 0.19836,0.29688 0,0.0136 -0.0441,0.0857 -0.0981,0.16011 -0.1981,0.27332 -0.33989,0.58783 -0.33989,0.75387 0,0.34268 0.14252,0.40005 0.47915,0.19292 0.11091,-0.0683 0.20675,-0.11751 0.21298,-0.10949 0.006,0.008 0.0717,0.1669 0.14541,0.35303 0.19921,0.50266 0.3657,0.75471 0.75947,1.15036 0.39431,0.39619 0.53034,0.46605 0.82463,0.42316 0.27093,-0.0395 1.00477,-0.35953 1.19212,-0.51989 0.0886,-0.0759 0.18525,-0.13795 0.21461,-0.13795 0.0294,1e-5 0.22354,0.0602 0.43156,0.1339 0.20802,0.0737 0.56078,0.17477 0.78389,0.22472 l 0.40566,0.0908 0.21143,-0.17426 c 0.1163,-0.0958 0.2478,-0.21488 0.29229,-0.26454 0.11029,-0.12308 0.15185,-0.11401 0.23025,0.0504 0.0911,0.19095 0.0879,0.20912 -0.0768,0.43677 -0.35283,0.48762 -0.53287,1.12357 -0.53288,1.88254 -1e-5,0.55135 -0.0684,1.1299 -0.1636,1.38449 -0.12138,0.32441 -0.34981,0.42464 -0.57114,0.25054 -0.0934,-0.0735 -0.10614,-0.10796 -0.0917,-0.24883 0.009,-0.0899 0.0307,-0.19488 0.0477,-0.2332 0.0488,-0.10996 -0.0769,-0.0864 -0.15217,0.0285 -0.084,0.12818 -0.0819,0.35745 0.005,0.50388 0.0862,0.14593 0.41552,0.31368 0.61577,0.31368 0.18277,0 0.18792,0.0346 0.0718,0.47775 -0.0581,0.2218 -0.078,0.42656 -0.0772,0.79625 0.001,0.53982 -5.8e-4,0.52805 0.21563,1.43324 0.34674,1.4517 0.4173,1.7894 0.47767,2.28424 0.0351,0.28741 0.0811,0.64795 0.10225,0.80123 0.0433,0.31357 0.10172,2.20958 0.068,2.20958 -0.0119,0 -0.13011,-0.0537 -0.26251,-0.11943 -0.1324,-0.0657 -0.25415,-0.11944 -0.2706,-0.11944 -0.0165,0 -0.0757,-0.0431 -0.13165,-0.0958 -0.12521,-0.11794 -0.53935,-0.34234 -0.89352,-0.48412 -0.14584,-0.0584 -0.28901,-0.14018 -0.31811,-0.18173 -0.0875,-0.12494 -0.49209,-0.38808 -0.69275,-0.45061 -0.64087,-0.19968 -1.12301,-0.33923 -1.25083,-0.36204 -0.081,-0.0145 -0.17823,-0.049 -0.21617,-0.0768 -0.0649,-0.0474 -0.0644,-0.0529 0.008,-0.0911 0.0423,-0.0224 0.24703,-0.0626 0.45505,-0.0893 0.44432,-0.0572 0.6715,-0.138 0.71476,-0.25435 0.0468,-0.12595 0.0107,-0.17762 -0.1986,-0.28366 -0.29429,-0.14912 -1.48316,-0.38447 -2.40414,-0.47588 -0.37486,-0.0372 -1.93093,-0.0972 -2.67054,-0.10295 l -0.67681,-0.005 -0.0129,0.55613 -0.0129,0.55613 0.15225,0.0274 c 0.0837,0.0151 0.39869,0.089 0.69983,0.16407 0.30114,0.0751 0.80787,0.18138 1.1261,0.23615 0.78197,0.13459 1.5248,0.33419 2.14093,0.57534 0.17109,0.067 0.33233,0.12188 0.35831,0.122 0.026,1.2e-4 0.0964,0.0259 0.15645,0.0572 0.0917,0.0478 0.33027,0.10273 0.89601,0.20629 0.0493,0.009 0.0896,0.0412 0.0896,0.0715 0,0.0938 0.39909,0.32472 0.81615,0.47223 0.53435,0.18899 1.02386,0.33215 1.31381,0.38428 0.31703,0.057 0.6122,0.15559 0.74548,0.24899 0.0839,0.0588 0.12609,0.0665 0.18646,0.0342 0.0992,-0.0532 0.13481,-0.0532 0.1021,-3.2e-4 -0.0448,0.0726 0.0658,0.15754 0.20505,0.15754 0.107,0 0.13444,0.0159 0.13444,0.078 0,0.0701 0.0334,0.0794 0.32846,0.0914 v 8e-5 c 0.18064,0.007 0.33414,0.0171 0.34104,0.0215 0.0412,0.0266 0.16656,-0.0868 0.16656,-0.1507 0,-0.10165 0.0837,-0.28134 0.12045,-0.25863 0.0161,0.01 0.0203,0.0966 0.009,0.19261 -0.0221,0.19558 0.0193,0.24589 0.17091,0.20785 0.092,-0.0231 0.0973,-0.04 0.0973,-0.315 0,-0.32478 0.0766,-0.62965 0.22915,-0.91226 0.11156,-0.20668 0.10401,-0.2521 -0.0793,-0.48055 -0.0754,-0.094 -0.0924,-0.17083 -0.10412,-0.47044 -0.0163,-0.41791 0.0398,-0.68098 0.33436,-1.56707 0.051,-0.15328 0.15862,-0.52951 0.23919,-0.83606 0.13724,-0.52225 0.14522,-0.58496 0.12674,-0.99531 -0.0152,-0.33824 -0.044,-0.50592 -0.12643,-0.73653 -0.2074,-0.58058 -0.20873,-0.58885 -0.12107,-0.73824 0.11215,-0.19114 0.84043,-0.96372 0.93753,-0.99454 0.0612,-0.0194 0.12867,0.0186 0.27356,0.15412 0.21389,0.20008 0.36083,0.24575 0.69003,0.21446 0.23326,-0.0222 0.50668,-0.12279 0.50668,-0.18647 0,-0.023 0.0358,-0.0777 0.0796,-0.12145 0.0685,-0.0685 0.11607,-0.3185 0.0606,-0.3185 -0.0105,0 -0.056,0.0723 -0.10116,0.1608 -0.14516,0.28454 -0.36722,0.2982 -0.61663,0.0379 -0.19863,-0.20733 -0.17357,-0.29417 0.44797,-1.5523 0.3083,-0.62406 0.61783,-1.26902 0.68785,-1.43324 0.07,-0.16423 0.1509,-0.35234 0.17978,-0.41803 0.1599,-0.36369 0.0922,-0.91733 -0.1636,-1.33846 -0.37696,-0.62055 -0.77502,-0.91853 -1.66925,-1.24958 -0.57988,-0.21468 -0.63143,-0.24297 -0.83147,-0.45684 -0.24225,-0.25898 -0.44014,-0.68541 -0.58117,-1.25222 -0.16906,-0.67949 -0.17161,-0.71918 -0.0543,-0.85853 0.0553,-0.0657 0.12541,-0.11952 0.15575,-0.11952 0.0847,0 0.18367,0.22782 0.2402,0.55302 0.0413,0.23773 0.0753,0.31925 0.17674,0.42394 0.22998,0.23728 0.69514,0.28434 0.90216,0.0913 0.15958,-0.14882 0.29074,-0.44501 0.29074,-0.65652 0,-0.34067 -0.18964,-0.64351 -0.74586,-1.19103 -0.38225,-0.37626 -0.48833,-0.50367 -0.48833,-0.58676 0,-0.0584 -0.0338,-0.19505 -0.075,-0.30365 -0.0781,-0.20559 -0.0733,-0.24122 0.032,-0.24152 0.3737,-0.001 0.68431,-0.33206 0.57627,-0.61359 -0.0508,-0.13235 -0.13042,-0.067 -0.1227,0.1007 0.005,0.11235 -0.0124,0.17657 -0.056,0.20489 -0.0886,0.0576 -0.26292,0.005 -0.38304,-0.11477 -0.0934,-0.0934 -0.0996,-0.12172 -0.0803,-0.36236 0.0178,-0.22143 0.0613,-0.34009 0.28724,-0.78287 0.28226,-0.55323 0.37509,-0.66349 0.62043,-0.737 0.22097,-0.0662 0.39556,-0.22548 0.39556,-0.36088 0,-0.12449 -0.10745,-0.24942 -0.13343,-0.15512 -0.0853,0.30962 -0.1589,0.37752 -0.29074,0.26811 -0.0724,-0.0601 -0.0513,-0.31866 0.0431,-0.52565 0.10328,-0.22658 0.14132,-0.43713 0.16648,-0.92237 0.0344,-0.66425 -0.0712,-1.15299 -0.35722,-1.65222 -0.23974,-0.41852 -0.24061,-0.42293 -0.13134,-0.65372 0.14287,-0.30173 0.1518,-0.34229 0.10583,-0.48156 -0.03,-0.0908 -0.0869,-0.14797 -0.19673,-0.1975 -0.14189,-0.064 -0.24105,-0.0588 -0.24105,0.0126 0,0.0158 0.0538,0.049 0.11944,0.0738 0.0865,0.0326 0.11909,0.0707 0.11819,0.1381 -0.002,0.17078 -0.0877,0.23242 -0.32192,0.23242 -0.19887,0 -0.22958,-0.0134 -0.4136,-0.17986 -0.36976,-0.33449 -0.59547,-0.48892 -1.04616,-0.71577 -0.4654,-0.23424 -0.53937,-0.30247 -0.58273,-0.53762 -0.0512,-0.27774 -0.35397,-0.51661 -0.68855,-0.54322 -0.0313,-0.002 -0.061,-0.004 -0.0889,-0.004 z m -1.54794,5.15322 c -0.044,-0.004 -0.084,0.0351 -0.12216,0.11874 -0.11804,0.25907 -0.73336,0.9205 -1.00938,1.08504 -0.0821,0.049 -0.1493,0.10547 -0.1493,0.12559 0,0.20948 0.74236,-0.41438 1.12175,-0.94267 0.11268,-0.15691 0.14146,-0.17531 0.23973,-0.15373 0.13305,0.0292 0.13769,0.007 0.0306,-0.14308 -0.0402,-0.0564 -0.0769,-0.0864 -0.1112,-0.0899 z m 2.69823,0.0521 c -0.047,0 -0.25267,0.27594 -0.22574,0.30287 0.0121,0.0121 0.0567,0.004 0.099,-0.0191 0.0768,-0.0411 0.16874,0.005 0.16874,0.0847 0,0.065 0.31018,0.48846 0.48101,0.65675 0.26743,0.26345 0.30619,0.19898 0.0592,-0.0985 -0.12221,-0.14724 -0.29568,-0.41598 -0.38545,-0.59718 -0.0898,-0.18121 -0.17833,-0.32947 -0.1968,-0.32947 z m -2.96276,1.39344 c -0.0764,0 -0.0764,0.0362 4e-4,0.19004 0.0569,0.11413 0.0481,0.30639 -0.0158,0.34268 -0.014,0.008 -0.10613,0.026 -0.20466,0.04 -0.16894,0.024 -0.18301,0.0186 -0.24696,-0.0945 -0.0476,-0.0842 -0.098,-0.1199 -0.1692,-0.1199 -0.13414,0 -0.12772,0.0444 0.0183,0.12752 0.0656,0.0373 0.11912,0.0923 0.11912,0.12232 0,0.03 -0.0574,0.16057 -0.1276,0.29019 -0.11499,0.2123 -0.12769,0.26927 -0.12815,0.5744 -3.5e-4,0.23784 0.0187,0.3743 0.0641,0.45816 0.0795,0.1468 0.21892,0.28006 0.351,0.3356 0.1686,0.0709 0.50427,0.0292 0.61701,-0.0767 0.10027,-0.0942 0.25886,-0.45889 0.25886,-0.59525 0,-0.056 0.0397,-0.0814 0.1591,-0.10155 0.10131,-0.0171 0.18807,-0.0637 0.23887,-0.1283 0.0842,-0.1071 0.10709,-0.24992 0.04,-0.24992 -0.0219,0 -0.0398,0.0348 -0.0398,0.0774 0,0.0929 -0.14288,0.20132 -0.26532,0.20132 -0.1109,0 -0.11702,-0.0116 -0.14968,-0.28141 -0.0252,-0.20807 -0.021,-0.22431 0.0695,-0.26554 0.10242,-0.0467 0.28467,-0.37398 0.25504,-0.45808 -0.01,-0.0275 -0.0477,0.021 -0.0845,0.10777 -0.08,0.18869 -0.17434,0.30007 -0.25404,0.30007 -0.0321,0 -0.13594,-0.0493 -0.23078,-0.10948 -0.13514,-0.0858 -0.1673,-0.12671 -0.14868,-0.18895 0.0571,-0.1909 -0.0206,-0.49781 -0.12612,-0.49781 z m 2.85926,0.15925 c -0.071,0 -0.068,0.0579 0.006,0.11943 0.10342,0.0858 0.0718,0.28976 -0.0747,0.48117 -0.19514,0.25496 -0.27944,0.54514 -0.24549,0.84524 0.0454,0.40125 0.16063,0.58966 0.40551,0.66305 v 8e-5 c 0.15232,0.0456 0.13523,0.0456 0.29588,9.3e-4 0.16727,-0.0465 0.27773,-0.15458 0.40644,-0.39797 0.0704,-0.13315 0.12333,-0.18304 0.21384,-0.20155 0.14723,-0.0301 0.21282,-0.0684 0.21282,-0.12418 0,-0.0274 -0.0203,-0.0256 -0.0575,0.005 -0.0316,0.0263 -0.0988,0.0419 -0.1493,0.0348 -0.0805,-0.0114 -0.0948,-0.0418 -0.11702,-0.24882 -0.0247,-0.23003 -0.022,-0.23906 0.10948,-0.36306 0.0742,-0.0699 0.13476,-0.15641 0.13476,-0.19214 0,-0.10034 -0.0527,-0.0768 -0.12924,0.0577 -0.0815,0.14312 -0.16802,0.14047 -0.25777,-0.008 -0.0587,-0.0971 -0.0572,-0.11633 0.0215,-0.27892 0.0509,-0.10515 0.0751,-0.2108 0.0607,-0.26562 -0.0328,-0.1255 -0.116,-0.0847 -0.10116,0.0496 0.007,0.06 -0.0168,0.15311 -0.052,0.20692 -0.0554,0.0844 -0.0895,0.0962 -0.25046,0.0858 -0.18163,-0.0117 -0.18696,-0.0159 -0.21042,-0.16127 -0.0256,-0.15869 -0.1334,-0.30862 -0.22192,-0.30862 z m -2.99962,0.56079 c 0.18915,-0.004 0.38676,0.097 0.48102,0.28172 0.16221,0.31796 0.0653,1.02607 -0.15661,1.14484 -0.15372,0.0823 -0.38116,0.0511 -0.55737,-0.0766 -0.17833,-0.12918 -0.20298,-0.21057 -0.0988,-0.32573 0.0381,-0.0421 0.0741,-0.16589 0.0845,-0.29027 0.0144,-0.17322 4.7e-4,-0.24653 -0.069,-0.36423 l -0.0869,-0.14735 0.096,-0.0959 c 0.0833,-0.0833 0.19373,-0.12387 0.30722,-0.12644 z m 3.30381,0.0202 c 0.0618,8e-5 0.12277,0.0117 0.17511,0.0365 0.19714,0.0935 0.27634,0.29801 0.25684,0.66298 -0.0196,0.36735 -0.14748,0.64673 -0.3241,0.7083 -0.19407,0.0676 -0.30698,0.0454 -0.45566,-0.0899 -0.10226,-0.093 -0.11536,-0.20671 -0.0333,-0.2888 0.031,-0.031 0.0762,-0.14908 0.10054,-0.26243 0.0389,-0.18126 0.0346,-0.22548 -0.0355,-0.36718 -0.0717,-0.14486 -0.0738,-0.17017 -0.021,-0.25077 0.0611,-0.0933 0.20113,-0.14891 0.33708,-0.14875 z m -7.04477,1.647 c 0.0408,0.002 0.1031,0.0441 0.14509,0.11097 0.20582,0.32762 0.61785,0.72657 0.75037,0.72657 0.0269,0 0.0714,-0.0542 0.0988,-0.12029 0.0552,-0.13331 0.26605,-0.32995 0.31881,-0.29735 0.0186,0.0115 -0.01,0.0967 -0.0626,0.18942 -0.15078,0.26371 -0.13104,0.38452 0.107,0.65387 0.24091,0.27262 0.35165,0.49865 0.36212,0.73918 0.007,0.15335 -0.0135,0.19969 -0.16617,0.38078 -0.20077,0.23811 -0.2733,0.25245 -0.50053,0.0992 -0.21616,-0.14576 -0.57658,-0.49229 -0.57658,-0.55434 0,-0.0297 0.0616,-0.0556 0.14898,-0.0629 0.10501,-0.009 0.15291,-0.0332 0.16236,-0.083 0.0188,-0.0992 -0.20697,-0.29785 -0.39657,-0.34891 -0.16454,-0.0443 -0.23417,-0.13293 -0.1615,-0.20559 0.0301,-0.0301 0.0867,-0.025 0.19439,0.0174 0.0836,0.0329 0.23711,0.0723 0.34129,0.0875 0.22459,0.0327 0.27547,-0.0282 0.16469,-0.19728 -0.0724,-0.11044 -0.46074,-0.41709 -0.52821,-0.41709 -0.0823,0 -0.44299,-0.5498 -0.44299,-0.67526 0,-0.0309 0.0168,-0.0441 0.0413,-0.0429 z m 5.70616,0.1654 c -0.0647,2.4e-4 -0.0714,0.0419 -0.011,0.10233 0.0702,0.0702 -0.0246,0.10108 -0.30543,0.0995 -0.24146,-10e-4 -0.2944,0.0196 -0.22558,0.0892 0.0164,0.0166 0.1595,0.0238 0.31788,0.0159 0.32506,-0.0162 0.46322,-0.0964 0.38405,-0.2227 -0.0238,-0.0379 -0.0817,-0.0747 -0.12869,-0.0817 -0.0116,-0.002 -0.022,-0.003 -0.0313,-0.002 z m -5.80484,0.0939 c 0.0156,0.002 0.0428,0.0343 0.0694,0.0857 0.0356,0.0685 0.11165,0.18046 0.16904,0.24867 0.0574,0.0682 0.0975,0.14467 0.0891,0.1699 -0.008,0.0252 -0.0701,-0.024 -0.13701,-0.10932 -0.15527,-0.19801 -0.22219,-0.32616 -0.20187,-0.38631 0.002,-0.007 0.006,-0.009 0.0113,-0.009 z m 1.26653,0.0174 c 0.0158,8.8e-4 0.025,0.006 0.025,0.0162 0,0.007 -0.0803,0.0966 -0.17846,0.19906 -0.18091,0.18882 -0.23539,0.21758 -0.27884,0.14728 -0.0387,-0.0626 0.0476,-0.18616 0.19277,-0.27589 0.0867,-0.0536 0.19219,-0.0893 0.23949,-0.0866 z m -1.58923,0.001 c 0.021,-6.7e-4 0.0378,0.005 0.0501,0.0173 0.0135,0.0135 -0.0829,0.1276 -0.21431,0.25358 -0.59845,0.57372 -0.87189,1.11832 -0.7041,1.40237 0.0956,0.16177 0.23004,0.19388 0.40621,0.097 0.10573,-0.0582 0.19482,-0.17818 0.38156,-0.51383 0.28249,-0.50776 0.41491,-0.69672 0.48809,-0.69672 0.0802,0 0.0608,0.09 -0.04,0.18546 -0.0889,0.0842 -0.3458,0.56812 -0.3458,0.65138 0,0.0695 -0.16196,0.37066 -0.25326,0.47083 -0.0468,0.0513 -0.13348,0.11853 -0.1926,0.14929 -0.16123,0.0839 -0.2815,0.0683 -0.45746,-0.0592 -0.20671,-0.14974 -0.28822,-0.39942 -0.21329,-0.65325 0.094,-0.31834 0.29767,-0.63689 0.60659,-0.94873 0.2274,-0.22955 0.39734,-0.3526 0.48825,-0.35552 z m 8.90609,0.22115 c 0.0916,0.0176 0.81554,0.76067 0.90759,0.93598 0.0403,0.0768 0.0936,0.21505 0.11851,0.30738 0.0407,0.15123 0.0352,0.18766 -0.0558,0.36718 -0.0603,0.11902 -0.14823,0.22365 -0.21827,0.25987 -0.33639,0.17395 -0.66808,-0.0385 -0.75924,-0.48638 -0.0257,-0.12613 -0.1003,-0.32401 -0.16586,-0.43973 -0.0958,-0.16909 -0.10983,-0.22175 -0.0712,-0.26827 0.0264,-0.0318 0.0643,-0.0479 0.0841,-0.0356 0.053,0.0328 0.21239,0.36365 0.29144,0.60512 0.0968,0.29555 0.23282,0.44664 0.40217,0.44664 0.15972,0 0.21679,-0.0818 0.21679,-0.31041 0,-0.21429 -0.15965,-0.4975 -0.50761,-0.90044 -0.2777,-0.32158 -0.3334,-0.42887 -0.24953,-0.48071 0.002,-9.9e-4 0.004,-10e-4 0.007,-6.2e-4 z m -8.71986,0.003 c 0.0358,-0.003 0.0604,0.0206 0.0879,0.0642 0.029,0.046 0.008,0.10681 -0.0819,0.23647 -0.0665,0.096 -0.24861,0.3832 -0.40458,0.63816 -0.15597,0.25496 -0.31189,0.47443 -0.34649,0.48771 -0.0886,0.034 -0.0875,0.0345 -0.15738,-0.0721 -0.13187,-0.20126 0.0781,-0.60492 0.56437,-1.08489 0.18748,-0.18506 0.27838,-0.2644 0.33809,-0.26951 z m 8.63564,0.35676 c 0.0281,0.002 0.12606,0.0994 0.22706,0.22783 0.33244,0.42257 0.4482,0.6147 0.4482,0.74384 0,0.10215 -0.0155,0.12224 -0.0946,0.12224 -0.1175,0 -0.15277,-0.0431 -0.26081,-0.3185 -0.0472,-0.12043 -0.1476,-0.33896 -0.22308,-0.4856 -0.0755,-0.14665 -0.12112,-0.27661 -0.1014,-0.2888 0.001,-7.6e-4 0.003,-10e-4 0.005,-10e-4 z m -8.10478,0.025 c 0.008,-3.6e-4 0.0172,-3.6e-4 0.0264,8e-5 0.12193,0.006 0.30456,0.0798 0.41173,0.19168 0.0632,0.0659 0.10726,0.12691 0.0979,0.13545 -0.05,0.0457 -0.63412,-0.19068 -0.63412,-0.25668 0,-0.046 0.0393,-0.068 0.0981,-0.0705 z m -0.0874,0.63109 c 0.18273,8e-5 0.43175,0.10557 0.46002,0.19494 0.0178,0.0562 -0.0975,0.0505 -0.40108,-0.0197 -0.0854,-0.0198 -0.10948,-0.0109 -0.10948,0.0403 0,0.0361 0.0254,0.0753 0.0565,0.0872 0.031,0.0119 0.10268,0.0916 0.15925,0.17713 0.0566,0.0855 0.19535,0.24692 0.30839,0.35878 l 0.20552,0.20334 -0.0798,0.22332 c -0.0439,0.12282 -0.0982,0.22947 -0.12084,0.23701 -0.0494,0.0165 -0.0898,-0.11875 -0.0905,-0.30318 -4.5e-4,-0.11041 -0.0465,-0.18326 -0.25731,-0.40668 -0.26965,-0.28585 -0.37182,-0.50266 -0.32495,-0.68941 0.0228,-0.0907 0.0463,-0.10307 0.19432,-0.10303 z m 7.34982,0.21407 c 0.0241,1.6e-4 0.0412,0.005 0.0513,0.0155 0.0221,0.0221 0.0909,0.27961 0.1528,0.57215 0.11459,0.54139 0.24194,0.95761 0.32285,1.05511 0.12589,0.15168 -0.39309,-0.0424 -0.66219,-0.24766 -0.0763,-0.0582 -0.13872,-0.136 -0.13872,-0.17294 0,-0.0369 0.0627,-0.22268 0.13934,-0.41274 0.12998,-0.32233 0.18725,-0.61221 0.1035,-0.52394 -0.0197,0.0208 -0.11611,0.23494 -0.21415,0.47581 -0.098,0.24086 -0.23615,0.53647 -0.30691,0.6569 -0.17702,0.30127 -0.63118,0.98951 -0.74874,1.13466 -0.14506,0.17911 -0.61137,0.66176 -0.7597,0.78629 -0.0717,0.0602 -0.15144,0.10738 -0.17713,0.10482 -0.0877,-0.009 -0.84271,-0.18423 -0.96242,-0.22371 -0.26003,-0.0857 -0.76495,-0.30973 -0.91569,-0.40621 -0.63459,-0.40618 -1.6537,-1.36864 -1.71722,-1.62174 -0.029,-0.1156 0.14211,-0.39355 0.28133,-0.45698 0.075,-0.0342 0.14402,-0.0228 0.34673,0.0569 0.1392,0.0547 0.39643,0.14847 0.5716,0.20831 0.39859,0.13616 1.33684,0.58422 1.73184,0.82704 0.23085,0.14192 0.30921,0.17278 0.34525,0.13592 0.0256,-0.0262 0.1188,-0.18566 0.20699,-0.35426 0.23561,-0.45043 0.64817,-1.07125 0.79275,-1.1929 0.15993,-0.13456 0.29168,-0.17657 0.78498,-0.25015 0.21896,-0.0327 0.48468,-0.089 0.59042,-0.12511 0.081,-0.0277 0.14095,-0.0413 0.18117,-0.0411 z m -3.11812,0.18398 c 0.19737,0 0.23829,0.0416 0.26757,0.27184 0.0559,0.43988 0.41429,0.42888 0.64042,-0.0196 0.0523,-0.10383 0.0989,-0.13353 0.26531,-0.16921 0.2476,-0.0531 0.23763,-0.0532 0.23763,0.003 0,0.0445 -0.10014,0.21547 -0.3849,0.65721 -0.073,0.1132 -0.13266,0.22374 -0.13266,0.24572 0,0.0533 -0.23361,0.28499 -0.28732,0.28499 -0.0275,0 -0.0344,-0.0767 -0.0197,-0.21897 0.0124,-0.12044 0.008,-0.21897 -0.0105,-0.21897 -0.0425,0 -0.12044,0.22282 -0.12044,0.34431 0,0.10805 -0.028,0.10906 -0.2986,0.0104 -0.10948,-0.0399 -0.26624,-0.0734 -0.34836,-0.0743 -0.18835,-0.002 -0.19492,-0.0734 -0.0307,-0.33234 0.17455,-0.27524 0.0405,-0.24534 -0.1437,0.032 -0.091,0.13701 -0.17356,0.21897 -0.22068,0.21897 -0.0961,0 -0.47083,-0.18855 -0.47083,-0.23693 0,-0.0991 0.0911,-0.24694 0.27846,-0.45193 0.22413,-0.24524 0.4514,-0.34626 0.77898,-0.34626 z m -0.93186,0.0665 c 0.023,9.6e-4 0.0375,0.003 0.0413,0.007 0.0151,0.0145 -0.0565,0.17396 -0.15925,0.35442 h -8e-5 c -0.10812,0.18999 -0.21183,0.32697 -0.24641,0.32534 -0.0961,-0.005 -0.6547,-0.20413 -0.68024,-0.24307 -0.0128,-0.0196 -0.0127,-0.10089 3.2e-4,-0.18071 0.0195,-0.11976 0.0444,-0.15032 0.14277,-0.17488 0.16757,-0.0419 0.74079,-0.0945 0.90161,-0.0878 z m -2.29885,0.74726 c 0.003,-4.4e-4 0.006,-4e-4 0.008,1.6e-4 0.007,0.001 0.0151,0.006 0.0232,0.0143 0.0323,0.0323 0.0153,0.10847 -0.0635,0.28405 -0.0868,0.19348 -0.10537,0.28743 -0.0958,0.48537 0.0103,0.21375 0.0258,0.2559 0.12006,0.32604 0.10027,0.0747 0.12065,0.0765 0.27869,0.0245 0.0938,-0.0308 0.23773,-0.11671 0.31997,-0.19082 l 0.14953,-0.13476 0.18888,0.17301 c 0.10388,0.0951 0.21766,0.20926 0.25279,0.25365 0.10661,0.13469 0.1652,0.37643 0.14634,0.60388 -0.012,0.14428 -0.004,0.21082 0.0253,0.20124 0.0483,-0.016 0.0891,-0.13374 0.12333,-0.35614 0.0126,-0.0821 0.042,-0.1493 0.0652,-0.1493 0.15226,0 0.55131,0.48585 0.55131,0.67122 0,0.11182 -0.18481,0.23102 -0.56756,0.36601 -0.42758,0.1508 -0.6364,0.15185 -0.86911,0.004 -0.38674,-0.24526 -0.80891,-0.85259 -1.0069,-1.44841 l -0.11321,-0.34058 0.17511,-0.29315 c 0.0963,-0.1612 0.19768,-0.34507 0.22527,-0.40862 0.0241,-0.0555 0.0433,-0.0828 0.0627,-0.0859 z m -0.77339,0.42044 c 0.0624,0 0.0477,0.21068 -0.0216,0.30964 -0.074,0.1056 -0.17689,0.11657 -0.17674,0.0188 2e-4,-0.0887 0.145,-0.32846 0.19836,-0.32846 z m 1.15542,0.0403 c 0.0122,-4.7e-4 0.0266,0.0104 0.0465,0.0303 0.034,0.034 0.0326,0.0608 -0.006,0.10684 -0.0751,0.0904 -0.13029,0.0747 -0.0987,-0.0282 0.0233,-0.0757 0.0375,-0.10823 0.0578,-0.10902 z m 4.73783,5.95865 c 0.25205,0.003 0.22548,0.0969 -0.002,0.75674 l -0.21726,0.62954 0.003,0.69671 c 0.003,0.66174 0.0264,0.9424 0.15746,1.911 0.0311,0.22992 0.0664,0.51657 0.0785,0.637 0.044,0.4377 0.10967,0.90185 0.16625,1.17447 0.0616,0.29679 0.12328,2.31842 0.0764,2.50507 -0.014,0.0557 -0.078,0.12834 -0.1423,0.16158 -0.14412,0.0745 -0.13908,0.0747 -0.20552,-0.005 -0.0412,-0.0497 -0.0614,-0.30607 -0.0821,-1.04507 -0.0486,-1.73314 -0.15827,-2.6008 -0.49299,-3.8989 -0.27075,-1.04999 -0.30914,-1.29217 -0.31065,-1.95734 -0.001,-0.54635 0.0107,-0.66172 0.10436,-1.00596 0.0581,-0.21385 0.11512,-0.40392 0.12659,-0.42246 0.0344,-0.0557 0.34483,-0.12342 0.61468,-0.13414 0.0476,-0.002 0.0893,-0.003 0.12527,-0.003 z m 1.80485,0.18786 c 0.16364,0.001 0.31842,0.0371 0.43506,0.11493 0.0488,0.0325 0.14638,0.1655 0.21687,0.29548 l 0.12815,0.23631 -0.35093,0.34548 c -0.19299,0.19003 -0.36112,0.34556 -0.37363,0.34556 -0.0125,0 -0.0912,-0.0722 -0.1748,-0.16049 -0.0836,-0.0883 -0.21913,-0.18056 -0.30116,-0.20513 -0.13359,-0.04 -0.14659,-0.0554 -0.12441,-0.14805 l 0.0248,-0.10342 -0.0978,0.0896 c -0.14266,0.13073 -0.2142,0.11234 -0.28887,-0.0743 -0.0619,-0.15476 -0.0614,-0.17188 0.009,-0.30855 0.135,-0.26298 0.53796,-0.4298 0.89795,-0.42744 z m -1.44701,0.0439 c 0.0467,0 0.0605,0.0574 0.0634,0.26336 0.002,0.14486 0.0147,0.29204 0.0282,0.32714 0.0135,0.0351 0.0118,0.0693 -0.004,0.076 -0.0639,0.0277 -0.29282,-0.0186 -0.30971,-0.0626 -0.0329,-0.0857 0.15749,-0.60395 0.22184,-0.60395 z m -0.0862,0.77634 c 0.13583,0 0.22619,0.0246 0.29797,0.081 0.0567,0.0446 0.15849,0.10035 0.2262,0.12395 0.0677,0.0236 0.11628,0.0633 0.10801,0.0882 -0.0218,0.0655 -0.10189,0.0662 -0.32698,0.003 -0.10948,-0.0307 -0.27408,-0.0562 -0.36585,-0.0566 -0.18992,-8.8e-4 -0.21584,-0.024 -0.16819,-0.15007 0.0288,-0.0761 0.0632,-0.0896 0.22884,-0.0896 z m 0.9761,0.23086 c 0.2654,0 0.39293,0.15365 0.30956,0.37293 -0.0405,0.1065 -0.21766,0.19484 -0.32355,0.16135 -0.12935,-0.0409 -0.23888,-0.18275 -0.23888,-0.3094 0,-0.15729 0.076,-0.22488 0.25287,-0.22488 z m -1.28169,0.0774 0.26562,0.0208 c 0.36773,0.0288 0.57144,0.10471 0.63459,0.23647 0.0834,0.1741 0.27121,0.28334 0.4814,0.28016 0.23499,-0.004 0.25091,0.009 0.18227,0.14028 -0.0815,0.15629 -0.0732,0.21918 0.0806,0.60799 0.22471,0.56826 0.27084,1.02401 0.15707,1.55121 -0.0834,0.38657 -0.35933,1.39628 -0.45147,1.65222 -0.0938,0.26068 -0.21295,0.86822 -0.21461,1.09484 -7.2e-4,0.0985 0.0133,0.27269 0.0311,0.387 0.0272,0.17442 0.0179,0.24165 -0.0579,0.41803 -0.10254,0.23891 -0.2713,0.4959 -0.47036,0.71624 -0.075,0.083 -0.15183,0.15085 -0.17076,0.15085 -0.0685,0 -0.0824,-0.20512 -0.0595,-0.87455 0.0256,-0.7481 -0.0161,-1.38921 -0.13981,-2.1505 -0.23801,-1.46396 -0.41565,-3.73917 -0.31749,-4.06677 z m 1.30751,0.0591 c -0.13124,0.002 -0.20793,0.12535 -0.11143,0.22185 0.0263,0.0263 0.0979,0.0478 0.15925,0.0478 0.0972,0 0.11143,-0.0152 0.11143,-0.11866 0,-0.0936 -0.0211,-0.12406 -0.1,-0.14386 -0.0206,-0.005 -0.0405,-0.007 -0.0593,-0.007 z m 0.0199,0.10443 c 0.0208,0 0.0443,0.0192 0.0521,0.0428 0.008,0.0235 -0.0156,0.0428 -0.0521,0.0428 -0.0365,0 -0.06,-0.0193 -0.0521,-0.0428 0.008,-0.0235 0.0313,-0.0428 0.0521,-0.0428 z m 0.41803,0.12543 c 0.0219,0 0.0398,0.0258 0.0398,0.0574 0,0.0316 -0.0179,0.0684 -0.0398,0.082 -0.0219,0.0135 -0.0398,-0.0123 -0.0398,-0.0574 0,-0.0451 0.0179,-0.082 0.0398,-0.082 z"
       id="path1079"
       inkscape:connector-curvature="0"
       sodipodi:nodetypes="ccccsssccssccsscccccscccscccscccccccccccssccscsccccccccscscscccssccccscscssccsscccccscsccscccccccccccsscccccccccssccscsccccssscccccsccscsscscccccccccccsccccccsscsccscsccccccccccccccccscscscscscccsscccscccscccccscccccscsccsccscsccssccssssccccccccsccccccccsccsccccccccscccccscsccsccccccccsccsccsccsscccccscccccsccccccsccssscscccccccsccccccccsccsccsccccccccccccccscccscccsscccccccccccccscccsccccccccccccscccccccccccccccscsccccccsccccccssccccccccsccccsccccccccccsccccsccccccccccccsccccccsscccscscccsccccsscsscccccccscccscccccccccccsccccccccccccccscccccccccscsscccccccccccccccccccsccccsccccccccscsssccccssccccssscsccccssccscccssscss" />
  </g>
</svg>
