<?xml version="1.0" encoding="UTF-8" standalone="no"?>
<svg xmlns:rdf="http://www.w3.org/1999/02/22-rdf-syntax-ns#" xmlns="http://www.w3.org/2000/svg" xml:space="preserve" height="262.43" viewBox="0 0 262.43481 262.43103" width="262.43" version="1.1" xmlns:cc="http://creativecommons.org/ns#" xmlns:dc="http://purl.org/dc/elements/1.1/"><defs><clipPath id="n" clipPathUnits="userSpaceOnUse"><path d="m26.317 447.31c-4.522-53.15 34.906-99.91 88.063-104.43 53.157-4.522 99.915 34.905 104.44 88.059 4.522 53.155-34.905 99.913-88.061 104.44-2.783 0.237-5.552 0.353-8.295 0.353-49.644 0.001-91.854-38.041-96.14-88.412"/></clipPath><clipPath id="m" clipPathUnits="userSpaceOnUse"><path d="m-76.89 437.05 199.46 199.45 199.45-199.47-199.46-199.44z"/></clipPath><linearGradient id="d" gradientUnits="userSpaceOnUse" gradientTransform="matrix(136.61 136.6 136.6 -136.61 54.258 370.82)"><stop stop-color="#db9e39" offset="0"/><stop stop-color="#aa702b" offset=".067413"/><stop stop-color="#864d1c" offset=".12360"/><stop stop-color="#e9bb50" offset=".17978"/><stop stop-color="#f6ee71" offset=".29776"/><stop stop-color="#db9e39" offset=".40450"/><stop stop-color="#aa702b" offset=".45506"/><stop stop-color="#e9bb50" offset=".58989"/><stop stop-color="#f6ee71" offset=".66292"/><stop stop-color="#a17423" offset=".83147"/><stop stop-color="#542e15" offset=".91573"/><stop stop-color="#db9e39" offset=".99438"/><stop stop-color="#db9e39" offset="1"/></linearGradient><clipPath id="l" clipPathUnits="userSpaceOnUse"><path d="m27.152 439.23c0-52.637 42.671-95.308 95.307-95.308 52.639 0 95.309 42.671 95.309 95.308 0 52.635-42.67 95.307-95.309 95.307-52.636 0-95.307-42.672-95.307-95.307"/></clipPath><clipPath id="k" clipPathUnits="userSpaceOnUse"><path d="m27.153 534.53h190.62v-190.61h-190.62z"/></clipPath><linearGradient id="c" gradientUnits="userSpaceOnUse" gradientTransform="matrix(190.62 0 0 -190.62 27.152 439.23)"><stop stop-color="#db9e39" offset="0"/><stop stop-color="#e9bb50" offset=".10440"/><stop stop-color="#f6ee71" offset=".34065"/><stop stop-color="#e9bb50" offset=".51099"/><stop stop-color="#f6ee71" offset=".66292"/><stop stop-color="#db9e39" offset=".99438"/><stop stop-color="#db9e39" offset="1"/></linearGradient><clipPath id="j" clipPathUnits="userSpaceOnUse"><path d="m29.057 439.23c0-51.583 41.82-93.4 93.402-93.4 51.449 0 93.184 41.597 93.402 92.993v0.814c-0.218 51.396-41.953 92.994-93.402 92.994-51.582 0-93.402-41.818-93.402-93.401"/></clipPath><clipPath id="i" clipPathUnits="userSpaceOnUse"><path d="m29.057 532.63h186.8v-186.8h-186.8z"/></clipPath><clipPath id="h" clipPathUnits="userSpaceOnUse"><path d="m122.12 509.82c-38.83-0.18-70.254-31.72-70.254-70.59 0-38.987 31.607-70.593 70.593-70.593 38.988 0 70.595 31.606 70.595 70.593 0 38.873-31.423 70.408-70.254 70.592z"/></clipPath><clipPath id="g" clipPathUnits="userSpaceOnUse"><path d="m51.867 509.82h141.19v-141.19h-141.19z"/></clipPath><linearGradient id="b" gradientUnits="userSpaceOnUse" gradientTransform="matrix(141.19 0 0 -141.19 51.866 439.23)"><stop stop-color="#db9e39" offset="0"/><stop stop-color="#f6ee71" offset=".28021"/><stop stop-color="#f6ee71" offset=".66292"/><stop stop-color="#db9e39" offset=".99438"/><stop stop-color="#db9e39" offset="1"/></linearGradient><clipPath id="f" clipPathUnits="userSpaceOnUse"><path d="m53.113 439.31c0-38.254 31.049-69.265 69.346-69.265 38.3 0 69.349 31.011 69.349 69.265 0 38.253-31.049 69.264-69.349 69.264-38.297 0-69.346-31.011-69.346-69.264"/></clipPath><clipPath id="e" clipPathUnits="userSpaceOnUse"><path d="m53.113 370.05-0.00001 138.53h138.69l0.00001-138.53z"/></clipPath><linearGradient id="a" gradientUnits="userSpaceOnUse" gradientTransform="matrix(-.0000095 138.53 138.53 .0000095 122.46 370.05)"><stop stop-color="#db9e39" offset="0"/><stop stop-color="#f6ee71" offset=".28021"/><stop stop-color="#f6ee71" offset=".66292"/><stop stop-color="#db9e39" offset=".99438"/><stop stop-color="#db9e39" offset="1"/></linearGradient></defs><g transform="matrix(1.3333 0 0 -1.3333 -34.202 718.71)"><g transform="translate(1.4103 1.4103)"><g clip-path="url(#n)"><g><g><g clip-path="url(#m)"><path fill="url(#d)" d="m26.317 447.31c-4.522-53.15 34.906-99.91 88.063-104.43 53.157-4.522 99.915 34.905 104.44 88.059 4.522 53.155-34.905 99.913-88.061 104.44-2.783 0.237-5.552 0.353-8.295 0.353-49.644 0.001-91.854-38.041-96.14-88.412"/></g></g></g></g><path d="m130.75 535.37c-53.155 4.522-99.914-34.904-104.44-88.059-4.521-53.155 34.906-99.913 88.06-104.44 53.157-4.522 99.915 34.905 104.44 88.06 4.522 53.155-34.905 99.912-88.061 104.43" stroke="#192846" stroke-width="0.623" fill="none"/><g clip-path="url(#l)"><g><g><g clip-path="url(#k)"><path fill="url(#c)" d="m27.152 439.23c0-52.637 42.671-95.308 95.307-95.308 52.639 0 95.309 42.671 95.309 95.308 0 52.635-42.67 95.307-95.309 95.307-52.636 0-95.307-42.672-95.307-95.307"/></g></g></g></g><g fill="#192846" clip-path="url(#j)"><g fill="#192846"><g fill="#192846"><g fill="#192846" clip-path="url(#i)"><path fill="#192846" d="m29.057 439.23c0-51.583 41.82-93.4 93.402-93.4 51.449 0 93.184 41.597 93.402 92.993v0.814c-0.218 51.396-41.953 92.994-93.402 92.994-51.582 0-93.402-41.818-93.402-93.401"/></g></g></g></g><g clip-path="url(#h)"><g><g><g clip-path="url(#g)"><path fill="url(#b)" d="m122.12 509.82c-38.83-0.18-70.254-31.72-70.254-70.59 0-38.987 31.607-70.593 70.593-70.593 38.988 0 70.595 31.606 70.595 70.593 0 38.873-31.423 70.408-70.254 70.592z"/></g></g></g></g><g clip-path="url(#f)"><g><g><g clip-path="url(#e)"><path fill="url(#a)" d="m53.113 439.31c0-38.254 31.049-69.265 69.346-69.265 38.3 0 69.349 31.011 69.349 69.265 0 38.253-31.049 69.264-69.349 69.264-38.297 0-69.346-31.011-69.346-69.264"/></g></g></g></g><g><g fill-rule="evenodd"><path d="m122.46 507.2c-37.539 0-67.973-30.432-67.973-67.972 0-37.541 30.434-67.972 67.973-67.972 37.541 0 67.971 30.431 67.971 67.972 0 37.54-30.43 67.972-67.971 67.972" stroke="#192846" stroke-width="0.623" fill="#fff"/><path d="m164.85 401.21s-0.009 0.002-0.014 0.004c0.001-0.002 0.005-0.002 0.014-0.004" fill="#211d1c"/><path d="m182.29 419.19-13.625 51.377c0.449 0.427 1.002 1.326 1.206 3.206 0.007 0.079 0.117 1.569-0.882 2.513-0.634 0.599-1.536 0.826-2.675 0.677-0.276-0.015-3.106-0.847-2.808-3.3 0.409-0.878 0.153-1.148-0.21-1.32-1.402-0.435-7.82-1.795-18.942 5.188-0.311 0.221-8.145 5.687-15.139 2.72-0.439 3.264-1.739 7.914-4.548 14.549-0.246 0.663-0.598 1.103-1.037 1.283-0.278 0.111-0.544 0.095-0.733 0.035-0.967-0.111-1.377-1.224-1.424-1.36-2.767-6.537-4.063-11.147-4.519-14.401-6.928 2.734-14.581-2.61-14.91-2.845-11.096-6.964-17.51-5.607-18.916-5.169-0.22 0.118-0.602 0.377-0.199 1.307 0.493 2.856-2.311 3.409-2.821 3.313-1.145 0.149-2.041-0.078-2.677-0.677-0.996-0.944-0.885-2.434-0.882-2.498 0.205-1.885 0.757-2.79 1.206-3.219l-13.838-51.379h-0.419v-0.731c0-2.612 1.138-5.134 3.289-7.285 2.148-2.15 5.062-3.696 8.232-4.45v-6.86c-0.026-0.261-0.108-1.652 0.808-2.658 0.644-0.71 1.603-1.051 2.848-1.011h38.25c-1.373-1.73-4.549-5.34-7.417-5.772h-9.651c-1.285 0-2.329-1.046-2.329-2.33v-2.52c0-0.623 0.245-1.203 0.684-1.644 0.441-0.445 1.027-0.685 1.645-0.685h46.184c0.62 0 1.202 0.24 1.644 0.685 0.439 0.441 0.683 1.021 0.683 1.644v2.52c0 0.622-0.244 1.204-0.683 1.648-0.442 0.439-1.024 0.682-1.644 0.682h-9.125c-2.87 0.432-6.047 4.042-7.418 5.772h38.266c1.225-0.04 2.185 0.301 2.832 1.011 0.912 1.006 0.833 2.394 0.806 2.658v6.86c3.171 0.754 6.083 2.3 8.234 4.45 2.151 2.151 3.288 4.673 3.288 7.285v0.731z" fill="#192846"/><path d="m129.86 55.516c-0.216 0-0.51582 0.45479-0.64649 0.82812-3.8707 9.144-7.4819 17.876-5.5312 25.207 0.312 1.1667 1.1152 1.3027 1.1152 1.3027l10.186 0.0078c0.028-0.0093 0.58791-0.06655 1.1426-1.3105 1.0347-2.3173 1.7571-7.9497-5.5469-25.207-0.26-0.86667-0.71875-0.82812-0.71875-0.82812zm-13.205 19.268c-7.1031-0.22754-13.827 4.4572-13.938 4.5352-12.532 7.8667-20.763 8.1094-24.611 7.5254-0.788-0.04267-1.2615 0.39064-1.2988 0.66797-0.016 0.11333 0.20993 0.83424 1.4473 1.1289 14.819 2.828 26.345-5.264 26.477-5.3613 9.5947-5.48 14.74-4.6366 16.848-3.7246-0.124-1.0187-0.14282-2.2416-0.0215-3.7109-1.603-0.6925-3.2632-1.008-4.9023-1.0605zm26.564 0.0078c-1.6631 0.08446-3.3422 0.44538-4.959 1.2031 0.10933 1.4133 0.0875 2.5992-0.0352 3.5898 2.148-0.91733 7.4811-1.8607 17.205 3.6953 0.12933 0.096 11.65 8.1822 26.498 5.3516 1.5027-0.38667 1.4292-1.0052 1.4238-1.1172-0.0373-0.61867-0.65483-0.51926-1.2988-0.66992-3.852 0.57867-12.094 0.33384-24.645-7.5488-0.0888-0.05958-6.9828-4.8699-14.189-4.5039zm-25.152 5.6523c-2.5463-0.04417-6.5699 0.76244-12.504 4.1484-0.80133 0.55733-15.772 10.686-33.686 3.8535l6.0527 19.914c3.552 0.16799 8.874-0.0263 12.859-2.0703 0.15067-0.088 14.935-8.4971 33.791-5.3691 0.076-2.136 1.3772-3.9596 3.2266-4.793h-5.5137c-0.72933 0-1.4124-0.28683-1.9258-0.79883-0.512-0.51067-0.79492-1.1952-0.79492-1.9219 0-0.75867 0.30521-1.4532 0.81055-1.9492-0.51334-0.50933-0.81055-1.2044-0.81055-1.9297 0-0.75867 0.30521-1.4578 0.81055-1.9512-0.51334-0.51067-0.81055-1.2044-0.81055-1.9297 0-1.5 1.2194-2.7188 2.7207-2.7188h0.38477c-0.21334-0.31733-0.41251-0.70344-0.58985-1.1621l-0.38671-0.36523c-0.0207-0.01867-1.0884-0.91286-3.6348-0.95703zm23.852 0c-2.6325 0.04667-3.7883 0.94794-3.8203 0.97461l-0.37305 0.32422c-0.17466 0.47067-0.37703 0.86421-0.5957 1.1855h0.68555c0.72533 0 1.4073 0.28354 1.918 0.79688 0.51466 0.51333 0.79687 1.1965 0.79687 1.9219 0 0.72533-0.28869 1.4275-0.80469 1.9395 0.516 0.51333 0.80469 1.2147 0.80469 1.9414 0 0.72533-0.28869 1.4281-0.80469 1.9414 0.516 0.51333 0.80469 1.2122 0.80469 1.9375 0 0.72533-0.28221 1.4112-0.79687 1.9219-0.51067 0.51333-1.1926 0.79883-1.918 0.79883h-5.5137c0.59999 0.26667 1.1483 0.63924 1.627 1.1152 0.99066 0.992 1.5503 2.2935 1.5996 3.6855 18.88-3.1507 33.695 5.2718 33.811 5.3398 4.008 2.06 9.3386 2.2545 12.891 2.0918l6.0527-19.916c-17.916 6.832-32.882-3.2942-33.686-3.8516-5.9367-3.388-10.045-4.1951-12.678-4.1484zm-19.627 4.041c-0.31067 0-1.0994 0.36949-1.166 1.1602-0.048 0.55333 0.51535 1.3134 1.166 1.1641h15.523c0.64266 0 1.1621-0.5214 1.1621-1.1641 0-0.796-0.85278-1.1602-1.1621-1.1602h-15.523zm0.002 3.8789c-0.312 0-1.1013 0.36806-1.168 1.1641-0.048 0.55333 0.51597 1.31 1.168 1.166h15.521c0.64133 0 1.1621-0.52468 1.1621-1.166 0-0.796-0.85278-1.1641-1.1621-1.1641h-15.521zm-52.586 2.9238-17.084 64.504h13.201v-46.193s1.4961-2.5673 3.8828-3.1113v-15.199zm1.5527 0v15.113c1.1507 0.13067 2.3108 0.70012 3.4668 1.6894 0.37333 0.0453 0.8995 0.10673 1.5488 0.16407l-5.017-16.963zm117.64 0.04492-5.0156 16.924c0.644-0.0573 1.1742-0.12006 1.5449-0.16406 1.1573-0.99067 2.32-1.5588 3.4707-1.6895v-15.07zm1.5527 0v15.154c2.4813 0.39733 3.8828 3.1113 3.8828 3.1113v46.193h12.908l-16.791-64.459zm-68.16 0.91406c-0.312 0-1.1013 0.36682-1.168 1.1602-0.048 0.556 0.51597 1.3094 1.168 1.1641h15.521c0.64133 0 1.1621-0.51873 1.1621-1.1641 0-0.79333-0.85278-1.1602-1.1621-1.1602h-15.521zm7.7578 5.0371c-1.0227 0-1.9862 0.40162-2.7129 1.127-0.72533 0.72267-1.123 1.6863-1.123 2.709 0 1.0253 0.39771 1.9908 1.123 2.7148 0.72667 0.72667 1.6902 1.123 2.7129 1.123 2.1147 0 3.8379-1.7179 3.8379-3.8379 0-1.0227-0.39967-1.9863-1.125-2.709-0.724-0.72533-1.6876-1.127-2.7129-1.127zm13.648 4.4863c-2.6611 0.0211-5.4582 0.24865-8.3516 0.75781-0.244 0.92667-0.72259 1.778-1.4199 2.4727-1.0347 1.0333-2.409 1.6055-3.877 1.6055-1.464 0-2.8383-0.57214-3.877-1.6055-0.69733-0.7-1.1792-1.5525-1.4219-2.4805-18.487-3.2333-33.04 5.0276-33.219 5.1289-4.14 2.1307-9.4131 2.4256-13.121 2.2949l13.93 45.848h0.48633v0.9746c0 3.4827-1.5194 6.8468-4.3848 9.7148-3.4693 3.468-8.4347 5.7599-13.693 6.4199v6.9258c8.5293-1.092 23.74-7.291 23.949-7.375 22.593-7.3547 30.208 5.5273 30.252 5.6113 0.028 0.0413 0.54581 0.82173 1.2578 2.1777 0.70933-1.356 1.2258-2.125 1.2285-2.125 0.009-0.0173 7.0953-12.694 30.334-5.6406 0.156 0.0613 15.268 6.1322 23.832 7.2949v-6.8418c-5.356-0.61466-10.361-2.9219-13.887-6.4473-2.8667-2.868-4.3848-6.2322-4.3848-9.7148v-0.97461h0.48633l13.93-45.848c-3.712 0.12667-8.9969-0.17383-13.158-2.3125-0.12038-0.072-10.52-5.9755-24.891-5.8613zm-72.439 6.1992v47.822h1.9355v-46.936c-0.66267-0.48133-1.3089-0.77605-1.9355-0.88672zm117.64 0c-0.62533 0.11067-1.2748 0.40539-1.9375 0.88672v46.936h1.9375v-47.822zm-119.2 0.13c-1.224 0.432-2.0594 1.5256-2.3301 1.9336v45.762h2.3301v-47.695zm120.75 0v47.695h2.3301v-45.76c-0.27734-0.41067-1.1061-1.5036-2.3301-1.9356zm-115.7 1.5645v46.131h15.971l-13.959-45.932c-0.824-0.0627-1.5104-0.13656-2.0117-0.19922zm110.66 0.002c-0.50134 0.0613-1.1864 0.1346-2.0117 0.19727l-13.959 45.932h15.971v-46.129zm-132.96 48.07c0.25867 2.6173 1.5423 5.1516 3.7637 7.377 3.7347 3.7293 9.6444 6.0508 15.426 6.0508 9.8147 0 18.469-6.1731 19.189-13.428h-38.379zm116.87 0c0.25467 2.6173 1.5437 5.1516 3.7637 7.377 3.7333 3.7293 9.6458 6.0508 15.426 6.0508 9.816 0 18.471-6.1731 19.189-13.428h-38.379zm-20.086 13.969c-10.085-0.20687-14.685 4.7323-16.041 6.5703-0.408 0.68534-0.26495 1.1803-0.23828 1.4883 0.19066-0.0693 0.67406 0.28269 1.2754-0.80665 1.892-2.2627 9.2872-8.9998 26.531-2.8691 0.17733 0.0587 17.035 5.9466 27.729 5.6973-0.93733-0.068-1.776-0.2177-2.3906-0.3457-8.6173-0.884-24.252-7.2525-24.869-7.5059-4.6637-1.518-8.6344-2.1596-11.996-2.2285zm-36.344 0.004c-3.6918-0.14367-8.2008 0.42534-13.662 2.2012-0.67467 0.27733-16.634 6.7806-25.191 7.5566 0 0-1.5525 0.25569-2.3672 0.31836 10.693 0.268 27.608-5.6406 27.781-5.6992 17.555-6.2373 24.907 0.85476 26.639 2.9961 0.54534 0.692 0.94048 0.61765 1.1191 0.68165 0.32267-0.20934 0.44113-0.74416-0.4082-2.0215-1.6243-1.9507-5.7882-5.7171-13.91-6.0332zm-45.518 1.0195v6.9707c0.70667 0.33067 1.5141 0.49283 2.3301 0.54883v-7.2246c-0.78533-0.0613-1.5594-0.16559-2.3301-0.29492zm125.4 0c-0.74533 0.132-1.5024 0.2264-2.2598 0.28906v7.2246c0.79333-0.06 1.5731-0.2243 2.2598-0.54297v-6.9707zm-119.59 0.32422c-0.64533 0.036-1.2902 0.0503-1.9355 0.041v7.166c0.71733-0.0427 1.3809-0.135 1.9355-0.23633v-6.9707zm114.03 0.0156v7c0.51866 0.088 1.1174 0.16136 1.748 0.19336v-7.1719c-0.58 0.012-1.1667 0.007-1.748-0.0215zm-39.629 2.0781c-8.5971 0.11531-11.902 4.6281-12.225 4.8945l0.01 0.0137c2.9227-1.2973 14.293-5.4903 28.285 0.70703 0.0427 0.0173 3.7123 1.496 14.572 1.584-8.8653-1.6133-17.464-4.6155-17.98-4.7969-5.1232-1.8195-9.298-2.4475-12.662-2.4023zm-36.535 0.2539c-3.1201 0.0548-6.8034 0.65278-11.082 2.1484-0.52133 0.18134-9.1158 3.1835-17.982 4.7969 10.863-0.0867 14.524-1.5654 14.564-1.5801 13.919-6.16 25.246-2.0526 28.24-0.72461-0.089-0.077-4.3799-4.8051-13.74-4.6406zm-0.54296 3.998c-3.7545 0.01-7.9095 0.59253-12.064 2.2559 9.376-1.4573 26.566 0.594 26.779 0.61133-0.13108-0.13658-6.4549-2.889-14.715-2.8672zm39.617 0c-8.2605-0.0218-14.585 2.7326-14.713 2.8691 0.21067-0.0173 17.396-2.0706 26.777-0.61328-4.1554-1.6633-8.3097-2.246-12.064-2.2559zm-26.521 7.1211c-0.95467 1.2827-4.12 5.3482-7.7774 7.6309h28.492c-3.6533-2.2827-6.8214-6.3482-7.7734-7.6309h-12.941zm-24.668 9.1856c-0.41067 0-0.80299 0.16308-1.0977 0.45508-0.29467 0.296-0.45703 0.68299-0.45703 1.0977v3.3594c0.000001 0.412 0.16236 0.80432 0.45703 1.0977 0.29467 0.296 0.68699 0.45703 1.0977 0.45703h61.578c0.85467 0 1.5488-0.69602 1.5488-1.5547v-3.3594c0-0.41467-0.16236-0.80166-0.45703-1.0977-0.29333-0.292-0.68513-0.45508-1.0918-0.45508h-61.578z" transform="matrix(0.75 0 0 -0.75 25.652 536.04)" fill="#fff"/></g><g><path d="m132.47 13.006-0.86133 12.842 4.6367 0.3125c1.3373 0.09067 2.5719-0.20738 3.4746-0.99805 1.54-1.3493 1.5224-3.2354 1.6504-5.1621 0.13066-1.9333 0.39559-3.6898-0.95508-5.2324-0.78933-0.90667-1.9713-1.3638-3.3086-1.4531l-4.6367-0.30859zm-7.3672 0.10156-1.9707 0.08398-4.127 13.064 2.6172-0.11328 0.68164-2.3105 4.5723-0.19531 0.85742 2.2461 2.6172-0.11523-5.248-12.66zm18.641 0.73633 2.002 13.41 1.8535 0.32227 6.3926-11.963-2.584-0.44726-3.9727 7.832-1.125-8.7109-2.5664-0.44336zm-37.969 1.4688-8.2383 2.0176 3.0605 12.504 8.2383-2.0137-0.5332-2.1797-5.7949 1.4199-0.7461-3.0371 4.9356-1.2109-0.5332-2.1777-4.9336 1.209-0.71875-2.9316 5.7969-1.4199-0.53321-2.1797zm29.053 0.0957 1.8945 0.12695c0.86667 0.06 1.4269 0.36588 1.8242 0.92188 0.43066 0.60667 0.44769 1.4237 0.31836 3.373-0.132 1.9493-0.26677 2.8635-0.77344 3.4102-0.468 0.49333-1.0657 0.72602-1.9297 0.66602l-1.8945-0.12695 0.56055-8.3711zm24.145 1.5273-7.9297 11.168 2.5254 0.69726 1.3574-1.9883 4.4102 1.2109 0.12695 2.3984 2.5254 0.69727-1.1133-13.66-1.9023-0.52344zm-34.629 0.0039 1.7734 4.6133-3.1973 0.13477 1.4238-4.748zm-30.717 1.5352-2.3633 0.86133 1.8027 4.9434-4.0918 1.4941-1.8027-4.9434-2.3633 0.86133 4.4121 12.094 2.3613-0.85938-1.8477-5.0625 4.0996-1.4941 1.8418 5.0605 2.3594-0.86133-4.4082-12.094zm74.348 1.1445-4.8262 11.936 2.332 0.93945 2.9609-7.3203 1.7637 9.2344 2.0781 0.8418 4.8262-11.938-2.3301-0.94141-2.9551 7.3066-1.7734-9.2188-2.0762-0.83984zm-9 1.2559 0.27344 4.9336-3.082-0.84961 2.8086-4.084zm-77.01 2.0312-8.293 4.0762 0.98633 2.0117 3.0215-1.4863l4.711 9.544 2.252-1.11-4.689-9.543 3.021-1.482-0.992-2.012zm99.9 3.568c-0.30966 0.02996-0.61816 0.08969-0.92383 0.17969-1.768 0.524-2.5044 1.9535-3.5644 3.9082-1.0667 1.956-1.8638 3.3492-1.3438 5.1172 0.364 1.224 1.139 2.2218 2.375 2.8965 2.096 1.14 4.4254 0.84341 6.1094-1.3086l-2.2402-1.2188c-0.71733 0.78133-1.6719 1.1731-2.7812 0.56641-0.604-0.328-0.97375-0.8208-1.0938-1.3555-0.17066-0.71067-0.002-1.3201 1.1836-3.4961 1.1813-2.176 1.6036-2.6466 2.293-2.8906 0.51467-0.19333 1.1284-0.14636 1.7324 0.18164 1.1107 0.604 1.3032 1.6159 1.0312 2.6426l2.2402 1.2188c0.88933-2.584-0.10346-4.6912-2.2168-5.8379-0.929-0.506-1.8718-0.69339-2.8008-0.60352zm9.6016 4.6719-7.2949 10.609 6.9883 4.8027 1.2715-1.8477-4.9141-3.3789 1.7695-2.5801 4.1836 2.8789 1.2734-1.8477-4.1875-2.8789 1.709-2.4883 4.918 3.3809 1.2695-1.8477-6.9863-4.8027zm-130.12 4.476c-0.78225 0.06109-1.597 0.3688-2.377 0.9668l-4.0039 3.0723 7.8398 10.215 1.9961-1.5332-3.1289-4.0723 1.4336-1.1016 5.1211 2.543 2.3105-1.7754-5.6602-2.6523c0.71467-1.1173 0.90602-2.6799-0.19531-4.1133-0.81833-1.0667-2.0322-1.6507-3.3359-1.5488zm-0.13086 2.4141c0.55995-0.06034 1.0927 0.17297 1.4727 0.66797 0.60667 0.78667 0.4646 1.7882-0.41406 2.4629l-1.877 1.4375-2.0703-2.6973 1.8789-1.4395c0.328-0.253 0.6738-0.39544 1.0098-0.43164zm140.16 0.08594-8.498 9.668 1.8848 1.6602 4.9551-5.6387-1.3633 5.3047 1.2754 1.123 5.0742-2.0449-4.957 5.6367 1.8867 1.6621 8.5039-9.6719-1.8613-1.6348-7.1094 3.0215 2.0703-7.4531-1.8613-1.6328zm-149.22 5.74c-1.28-0.024-2.4252 0.374-3.4785 1.3887-1.0573 1.0147-1.513 2.1595-1.541 3.4355-0.036 1.8413 1.1032 2.9741 2.6445 4.5781 1.5427 1.604 2.634 2.7881 4.4727 2.8281 1.2813 0.02133 2.4368-0.39025 3.4941-1.4062 1.0573-1.0147 1.498-2.1426 1.5273-3.4199 0.03333-1.8387-1.0948-2.9878-2.6348-4.5918-1.5413-1.604-2.6417-2.7752-4.4844-2.8125zm-0.287 2.387c0.72533 0.05067 1.2436 0.38264 2.9609 2.168 1.7133 1.7867 2.0242 2.3143 2.0469 3.0449 0.028 0.55067-0.18564 1.1334-0.68164 1.6094-0.49733 0.476-1.1024 0.68276-1.6504 0.63476-0.72933-0.05333-1.2306-0.39631-2.9492-2.1816-1.716-1.7853-2.0405-2.3032-2.0645-3.0312-0.02667-0.55333 0.20322-1.1477 0.69922-1.625 0.493-0.477 1.088-0.671 1.639-0.619zm161.15 2.5957-9.5957 8.582 5.6582 6.3184 1.6699-1.4922-3.9785-4.4492 2.3301-2.0859 3.3887 3.7871 1.668-1.4922-3.3848-3.7891 2.248-2.0137 3.9805 4.4492 1.6719-1.4961-5.6562-6.3184zm-169.33 1.5176-5.4922 6.4609 9.8105 8.3398 1.627-1.9121-3.9824-3.3867 3.291-3.873-1.707-1.4512-3.291 3.8711-2.4102-2.0488 3.8672-4.5449-1.7129-1.4551zm177.22 7.5664-10.498 7.4531 1.4531 2.0469 6.4453-4.5723-3.4922 8.7305 1.2988 1.8301 10.5-7.4531-1.4551-2.0508-6.4297 4.5645 3.4746-8.7246-1.2969-1.8242zm-190.8 10.346-1.2305 2.1953 6.8848 3.8457-9.373 0.60352-1.0938 1.959 11.242 6.2812 1.2266-2.1934-6.8965-3.8574 9.3848-0.59375 1.0938-1.957-11.238-6.2832zm198.17 0.34766-1.9609 1.0879 1.6348 2.9414-9.293 5.168 1.2226 2.1953 9.293-5.166 1.6328 2.9395 1.957-1.0898-4.4863-8.0762zm-202.63 12.981c-0.41012 0.02629-0.82076 0.1173-1.2461 0.29297-1.18 0.49067-2.0734 1.3133-2.6348 2.668-0.56267 1.3507-0.52387 2.5804-0.0332 3.7617 0.70133 1.7 2.2025 2.2846 4.2559 3.1406 2.0507 0.852 3.5239 1.5009 5.2266 0.79688 1.18-0.48667 2.0799-1.3237 2.6426-2.6797 0.56267-1.3533 0.51596-2.5674 0.0293-3.7461-0.70267-1.7027-2.1993-2.3023-4.25-3.1543-1.542-0.643-2.7599-1.159-3.9902-1.0801zm-0.0293 2.4863c0.56844-0.03144 1.3397 0.20011 3.0547 0.91211 2.2853 0.94933 2.7837 1.3133 3.0957 1.9746 0.24667 0.49333 0.28362 1.1128 0.01563 1.7461-0.26267 0.636-0.73515 1.0649-1.2578 1.2422-0.688 0.24267-1.2862 0.12973-3.5742-0.82227-2.2893-0.94933-2.7881-1.2937-3.1055-1.9551-0.244-0.49333-0.27243-1.1296-0.0098-1.7656 0.264-0.63333 0.72857-1.0474 1.2539-1.2207 0.172-0.061 0.33786-0.10085 0.52734-0.11133zm209.79 6.0293c-1.0325 0.0082-2.1236 0.37411-3.4453 0.80078-2.12 0.68267-3.6587 1.1394-4.5 2.7754-0.588 1.1373-0.72339 2.3606-0.27539 3.7539 0.44666 1.3947 1.2702 2.291 2.4062 2.875 1.6373 0.83867 3.1639 0.33244 5.2812-0.35156 2.1147-0.68 3.6561-1.1556 4.4961-2.793 0.584-1.136 0.72668-2.341 0.27735-3.7344-0.44667-1.3947-1.2722-2.3066-2.4082-2.8906-0.614-0.3165-1.2125-0.44049-1.832-0.43555zm-216.39 2.084-0.77344 2.3906 12.25 3.957 0.76953-2.3906-12.246-3.957zm216.83 0.43555c0.18733 0.02419 0.34963 0.07606 0.51563 0.15039 0.508 0.21733 0.94363 0.68713 1.1543 1.3418 0.21067 0.652 0.12589 1.2676-0.16211 1.7383-0.36933 0.63067-0.88938 0.95227-3.248 1.7109-2.36 0.76-2.972 0.80586-3.6387 0.50586-0.50266-0.21467-0.93457-0.66965-1.1426-1.3203-0.21467-0.65467-0.13299-1.2904 0.15234-1.7598 0.36667-0.632 0.89719-0.93541 3.2559-1.6914 1.768-0.57 2.5513-0.74834 3.1133-0.67578zm-218.48 4.5977-2.1719 8.9824 2.1816 0.52539 0.78711-3.2695 10.338 2.5 0.58984-2.4434-10.334-2.498 0.78906-3.2695-2.1797-0.52734zm224.51 4.2656-12.602 2.6367 0.51172 2.4609 5.1191-1.0723 1.0391 4.9746 2.1934-0.45899-1.0391-4.9766 3.0957-0.64453 1.2207 5.8359 2.1953-0.45704-1.7344-8.2988zm-214.08 7.0078-13.414 2.7988-0.28711 1.9512 12.068 6.4883 0.37695-2.5957-2.1465-1.0957 0.66211-4.5293 2.3652-0.42383 0.375-2.5938zm-4.9297 3.375-0.45898 3.168-4.4043-2.2832 4.8633-0.88476zm-9.5156 8.3848-0.16211 2.5078 12.848 0.83008 0.16211-2.5078-12.848-0.83008zm226.85 3.0078c-0.48473-0.0108-1.0036-0.003-1.5606 0.004-2.22 0.0253-3.8311 0.0102-5.1191 1.3262-0.89466 0.91599-1.3858 2.0815-1.3672 3.4922 0.0293 2.3867 1.4243 4.2669 4.127 4.6856l-0.0332-2.5508c-1.0307-0.24-1.8362-0.87982-1.8535-2.1465-0.007-0.68666 0.23901-1.2499 0.65234-1.6152 0.536-0.496 1.1483-0.64769 3.627-0.67969 2.476-0.0293 3.094 0.10656 3.6406 0.58789 0.42 0.35734 0.68012 0.91747 0.68946 1.6055 0.0147 1.264-0.77341 1.9241-1.8027 2.1894l0.0352 2.5469c2.6853-0.48 4.0391-2.3785 4.0098-4.7852-0.0173-1.4093-0.53579-2.5591-1.4531-3.4551-0.986-0.965-2.1376-1.1727-3.5918-1.2051zm-218.31 2.3066 0.0332 2.5488c1.036 0.23733 1.8414 0.87724 1.8574 2.1426 0.0093 0.68934-0.23777 1.2531-0.64844 1.6211-0.53467 0.49333-1.1457 0.64573-3.623 0.67773-2.476 0.036-3.0939-0.10008-3.6445-0.58008-0.41867-0.356-0.67807-0.91427-0.69141-1.5996-0.016-1.2653 0.77154-1.928 1.7969-2.1934l-0.0332-2.5508c-2.6867 0.488-4.0365 2.3876-4.0059 4.793 0.02 1.408 0.5436 2.5585 1.4609 3.4531 1.3187 1.28 2.9264 1.2246 5.1504 1.1953 2.2213-0.032 3.8311-0.0146 5.1191-1.3359 0.888-0.91733 1.3801-2.0802 1.3574-3.4922-0.02933-2.3867-1.4302-4.2664-4.1289-4.6797zm214.52 9.1191c-1.1342-0.003-2.0932 0.20109-2.9824 0.93359-0.98533 0.81067-1.5944 1.8799-1.7344 3.3359-0.13867 1.4613 0.26088 2.6051 1.0742 3.5918 1.1747 1.42 2.7769 1.5563 4.9902 1.7656 2.216 0.21333 3.8137 0.3817 5.2363-0.79297 0.988-0.812 1.5917-1.8576 1.7344-3.3203 0.136-1.4573-0.26088-2.6215-1.0742-3.6055-1.172-1.4227-2.7796-1.54-4.9902-1.752-0.83-0.079-1.5734-0.15462-2.2539-0.15625zm-0.52148 2.543c0.533-0.0418 1.3012 0.00047 2.5352 0.11914 2.468 0.23066 3.0456 0.41579 3.543 0.95312 0.38 0.40134 0.59597 1.0022 0.5293 1.6875-0.0653 0.68267-0.38989 1.2158-0.83789 1.5371-0.58533 0.43734-1.1941 0.52044-3.6621 0.28711-2.4667-0.236-3.0424-0.43594-3.5371-0.97461-0.38133-0.40266-0.59658-0.98335-0.53125-1.666 0.0627-0.68534 0.38989-1.2333 0.83789-1.5586 0.29133-0.21666 0.59005-0.34293 1.123-0.38476zm-213.94 0.13672c-0.68027 0.0167-1.422 0.10948-2.25 0.20898-2.2067 0.27067-3.8093 0.44591-4.9453 1.8926-0.788 1.0093-1.1545 2.1659-0.97852 3.6152 0.17467 1.4573 0.81436 2.5075 1.8184 3.2969 1.452 1.136 3.0432 0.90338 5.2539 0.63672 2.204-0.26534 3.8081-0.42629 4.9414-1.877 0.79067-1.0053 1.1551-2.1802 0.98047-3.6309-0.17467-1.456-0.80965-2.49-1.8203-3.2754-0.90417-0.7125-1.8662-0.89505-3-0.86718zm0.58398 2.5293c0.53417 0.0327 0.83605 0.15524 1.1367 0.36524 0.45333 0.31333 0.79367 0.83234 0.875 1.5137 0.08267 0.684-0.11504 1.2932-0.48438 1.7012-0.48133 0.54933-1.0609 0.74554-3.5195 1.0469-2.46 0.29866-3.0655 0.24288-3.6602-0.17579-0.46-0.30933-0.79891-0.84858-0.87891-1.5312-0.08533-0.68266 0.11895-1.273 0.48828-1.6797 0.47733-0.55067 1.0517-0.76774 3.5117-1.0664 1.2293-0.15 1.9971-0.20649 2.5312-0.17383zm208.43 6.0274-1.6543 8.1875 2.2012 0.44336 1.1543-5.7227 10.422 2.1035 0.5-2.4668-12.623-2.5449zm-206.26 2.6484c-0.28426 0.002-0.57865 0.0373-0.88281 0.10743-1.108 0.252-1.9587 0.76088-2.4414 1.5742-0.36933 0.64667-0.52259 1.4392-0.41992 2.6191l0.12891 1.5293c0.048 0.52667-0.05385 0.98001-0.22852 1.2774-0.18267 0.32133-0.49383 0.50017-0.8125 0.57617-0.86533 0.19733-1.7339-0.27351-2.0312-1.5762-0.18933-0.828-0.30194-1.8028 0.27539-2.7734l-1.8906-1.1973c-0.79333 1.312-0.92787 2.662-0.5332 4.3887 0.62267 2.7147 2.5719 4.0166 4.8105 3.502 1.056-0.24134 1.7984-0.72947 2.2598-1.4668 0.41733-0.68933 0.57104-1.556 0.48438-2.668l-0.13867-1.5664c-0.04533-0.60267 0.01479-0.90961 0.18945-1.2109 0.18667-0.324 0.52546-0.52953 0.9668-0.63086 1.0027-0.232 1.7299 0.42319 2.0605 1.8672 0.26667 1.1627 0.24667 2.2994-0.36133 3.2754l1.9473 1.2188c0.96667-1.5213 1.0434-3.0556 0.60742-4.9609-0.5285-2.2972-2.0004-3.8967-3.9902-3.8848zm207.1 7.4863c-0.61942 0.003-1.2162 0.13403-1.8262 0.45703-1.1267 0.59467-1.9424 1.5199-2.373 2.9199-0.432 1.3987-0.27187 2.601 0.32813 3.7344 0.86133 1.6267 2.4026 2.0777 4.5293 2.7363 2.1227 0.652 3.6598 1.1438 5.2852 0.28515 1.128-0.60133 1.9385-1.5076 2.3691-2.9062 0.432-1.3987 0.27773-2.6214-0.32227-3.748-0.86133-1.6293-2.4065-2.0687-4.5332-2.7207-1.3283-0.41-2.4247-0.762-3.457-0.75781zm-0.4082 2.5254c0.56106-0.0803 1.3471 0.0868 3.1211 0.63282 2.368 0.72933 2.9013 1.0264 3.2773 1.6504 0.292 0.47066 0.38102 1.1005 0.17969 1.7578-0.204 0.65866-0.62891 1.1112-1.1289 1.3379-0.664 0.30533-1.2792 0.26901-3.6445-0.45899-2.368-0.73333-2.8942-1.0445-3.2715-1.6738-0.292-0.464-0.38555-1.081-0.18555-1.7344 0.20534-0.65867 0.63867-1.1308 1.1387-1.3535 0.165-0.0767 0.32665-0.13146 0.51368-0.15821zm-204.25 0.25586c-0.28273 0.0294-0.57347 0.0922-0.86914 0.19141-1.08 0.364-1.8722 0.9565-2.2695 1.8125-0.30533 0.67733-0.38149 1.4831-0.16016 2.6484l0.27734 1.5098c0.09867 0.51733 0.04368 0.97964-0.09766 1.293-0.152 0.33867-0.44591 0.55296-0.75391 0.6543-0.84 0.28533-1.7484-0.0999-2.1777-1.3652-0.26933-0.80666-0.47857-1.7678-0.0039-2.7852l-1.9922-1.0078c-0.66267 1.3813-0.66237 2.7399-0.0957 4.4199 0.884 2.6387 2.951 3.7365 5.127 3.0059 1.0293-0.34667 1.7181-0.90165 2.1074-1.6816 0.348-0.72666 0.41351-1.607 0.21484-2.707l-0.28906-1.541c-0.104-0.59467-0.07821-0.90799 0.06445-1.2227 0.15467-0.34 0.47239-0.57866 0.90039-0.72265 0.97467-0.328 1.7637 0.24639 2.2344 1.6504 0.38 1.1307 0.47551 2.261-0.03516 3.293l2.0605 1.0254c0.81333-1.608 0.734-3.1468 0.11133-4.9961-0.749-2.2388-2.3744-3.6807-4.3535-3.4746zm198.38 7.2461-1 2.3066 4.709 2.0488-0.7207 1.6602-5.7109 0.25586-1.1602 2.6738 6.2402-0.42578c-0.0813 1.324 0.50744 2.782 2.1621 3.502 1.98 0.856 4.2379 0.14157 5.2832-2.2598l2.0117-4.6289-11.814-5.1328zm-192.61 0.83984-9.752 9.6348 0.82031 1.791 13.654-1.0977-1.0879-2.3867-2.3984 0.24218-1.9023-4.1582 1.7559-1.6387-1.0898-2.3867zm198.25 4.3516 3.1152 1.3535-0.94336 2.1738c-0.43733 1.0093-1.3732 1.3934-2.2852 0.99609-0.91333-0.39733-1.2713-1.3396-0.83398-2.3516l0.94726-2.1719zm-200.56 1.1621 1.332 2.9102-4.9355 0.46875 3.6035-3.3789zm190.19 4.127-4.1953 7.3691 1.9473 1.1094 2.9512-5.1856 2.7188 1.5508-2.5078 4.416 1.9453 1.1094 2.5117-4.418 2.623 1.4961-2.9512 5.1856 1.9492 1.1113 4.1953-7.375-11.188-6.3691zm-178.1 9.1641-1.8164 1.3144 3.4238 4.7324-8.6152 6.2324 1.4727 2.0352 10.432-7.5449-4.8965-6.7695zm172.75 0-2.7148 3.7715c-0.78133 1.08-1.1822 2.2867-0.99023 3.4707 0.328 2.0227 1.9358 3.0047 3.5078 4.1367 1.5693 1.128 2.9201 2.2844 4.9414 1.9551 1.1827-0.192 2.1984-0.94973 2.9824-2.0391l2.7188-3.7695-10.445-7.5254zm0.35351 3.3496 6.8047 4.9043-1.1094 1.543c-0.512 0.70267-1.0661 1.0094-1.7461 1.0547-0.744 0.0453-1.4479-0.37172-3.0332-1.5117-1.584-1.1453-2.2878-1.739-2.4824-2.459-0.172-0.66-0.0522-1.2869 0.45312-1.9922l1.1133-1.5391zm-167.49 4.4766-6.459 12.088 1.3125 1.4668 12.719-5.0957-1.7461-1.9512-2.2168 0.93945-3.0508-3.4082 1.1914-2.0859-1.75-1.9531zm-0.57031 5.9473 2.1309 2.3848-4.5762 1.9102 2.4453-4.2949zm154.87 2.0879-1.834 1.7226 3.3145 3.5332-1.8066 1.6953c-1.9387 1.8173-1.8522 4.2386-0.35351 5.8359 1.496 1.5973 3.9057 1.8402 5.8457 0.0215l3.6406-3.416-8.8066-9.3926zm-145.81 1.2754-8.5508 9.623 1.8789 1.6738 5.2363-5.8945-1.4258 9.2832 1.6758 1.4863 8.5508-9.6211-1.877-1.6699-5.25 5.9043 1.4375-9.293-1.6758-1.4922zm148.84 5.6308 2.4082 2.5703-1.7109 1.6094c-0.832 0.78134-1.8563 0.74776-2.5723-0.0176-0.71733-0.764-0.67246-1.7747 0.1582-2.5547l1.7168-1.6074zm-11.18 0.5293-6.7617 5.1191 1.3555 1.7852 4.7578-3.5977 1.8867 2.4902-4.0508 3.0684 1.3496 1.7891 4.0508-3.0664 1.8242 2.4082-4.7559 3.5996 1.3516 1.7891 6.7617-5.1211-7.7695-10.264zm-127.3 3.46c-0.30748-0.003-0.61697 0.0247-0.93164 0.0801-1.8133 0.31599-2.7278 1.6409-4.0078 3.4609-1.2813 1.8147-2.223 3.1261-1.9043 4.9395 0.21467 1.2587 0.82672 2.3077 2.0254 3.1504 1.1973 0.84266 2.406 1.0708 3.666 0.85351 1.812-0.31466 2.7109-1.6526 3.9883-3.4726 1.2813-1.8187 2.2373-3.1105 1.9199-4.9238-0.21867-1.26-0.84306-2.3201-2.0391-3.1641-0.899-0.63299-1.7944-0.91539-2.7168-0.92382zm0.12695 2.3398c0.42562-0.008 0.87688 0.12202 1.2969 0.41602 0.56133 0.396 0.88017 0.95128 0.9375 1.502 0.088 0.72133-0.15546 1.2833-1.5781 3.3086-1.4267 2.0267-1.874 2.4416-2.582 2.6016-0.53867 0.136-1.1698 0.0243-1.7285-0.37305-0.56267-0.392-0.86259-0.93904-0.91992-1.4844-0.08933-0.72666 0.13645-1.2989 1.5645-3.3242 1.4227-2.024 1.889-2.4291 2.5957-2.5918 0.134-0.0323 0.27219-0.0519 0.41406-0.0547zm117.68 1.8789c-0.92544-0.0559-1.8481 0.16542-2.7891 0.73242-1.2587 0.75467-1.9453 1.7548-2.252 2.9961-0.44933 1.788 0.39497 3.1557 1.543 5.0664 1.144 1.9067 1.9561 3.2956 3.7441 3.7383 1.2387 0.312 2.4471 0.17849 3.7031-0.57617 1.256-0.75334 1.9536-1.7639 2.2656-3.0039 0.448-1.7827-0.41397-3.1494-1.5566-5.0547-1.1453-1.9053-1.9471-3.3066-3.7324-3.752-0.31-0.0777-0.6173-0.12786-0.92578-0.14648zm-109.23 0.67383-6.5391 11.09 2.168 1.2773 6.5352-11.092-2.1641-1.2754zm108.93 1.6504c0.14235 0.0124 0.28144 0.0413 0.41211 0.084 0.69733 0.212 1.116 0.6592 2.3906 2.7832 1.276 2.124 1.4734 2.7033 1.332 3.418-0.0973 0.54267-0.44972 1.0731-1.0391 1.4277-0.59066 0.35333-1.2117 0.40628-1.7344 0.23828-0.70134-0.216-1.1302-0.64873-2.4062-2.7754-1.2747-2.1213-1.4564-2.7111-1.3164-3.4258 0.0933-0.544 0.43544-1.0673 1.0234-1.418 0.443-0.267 0.91083-0.36935 1.3379-0.33203zm-8.4961 1.9648-2.2852 1.0527 2.0293 4.3984-2.25 1.0391c-2.4147 1.1093-3.0956 3.4366-2.1836 5.4219 0.92 1.9893 3.1303 2.9805 5.5449 1.8672l4.5274-2.0879-5.3828-11.691zm-93.721 0.11719-4.7012 9.541-3.0176-1.4883-0.99219 2.0117 8.291 4.082 0.99023-2.0117-3.0176-1.4824 4.7031-9.541-2.2559-1.1113zm4.5684 2.3438-0.19922 13.705 1.8438 0.70313 8.9629-10.357-2.4473-0.9336-1.541 1.8457-4.2734-1.6289 0.10156-2.4004-2.4473-0.93359zm79.059 2.0117-7.9062 2.7031 0.72461 2.1211 5.5312-1.8887 3.4356 10.059 2.3789-0.81055-4.1641-12.184zm-67.248 2.373-3.1738 12.48 2.4355 0.61719 1.9434-7.6387 3 8.8965 2.1758 0.54883 3.168-12.479-2.4336-0.61718-1.9473 7.6582-2.9941-8.916-2.1738-0.55078zm78.031 0.66016 1.4746 3.2012-2.1387 0.98438c-1.0293 0.47733-1.9897 0.1213-2.4297-0.83204-0.43867-0.95466-0.077-1.8931 0.95898-2.3691l2.1348-0.98437zm-20.361 0.11133-8.2598 1.9297 0.50977 2.1856 5.8125-1.3574 0.70899 3.0449-4.9492 1.1562 0.50976 2.1836 4.9492-1.1582 0.68359 2.9414-5.8086 1.3594 0.50977 2.1816 8.2559-1.9238-2.9219-12.543zm-67.266 0.39453 2.9922 1.1426l-3.186 3.82 0.19727-4.9375zm39.881 7.2441c-1.5147 0-2.7441 1.2288-2.7441 2.7422 0 1.5147 1.2295 2.7441 2.7441 2.7441 1.5147 0 2.7442-1.2295 2.7442-2.7441 0-1.5133-1.2295-2.7422-2.7442-2.7422z" transform="matrix(0.75 0 0 -0.75 25.652 536.04)" fill="#f4cd25"/><path d="m146.96 115.83c-1.8427 0-3.3525 0.67863-4.5352 1.8906-1.7013 1.7467-1.6523 3.8989-1.6523 6.8789 0 2.9813-0.049 5.1355 1.6523 6.8809 1.1827 1.2133 2.6925 1.8906 4.5352 1.8906 3.116 0 5.5968-1.8399 6.1875-5.4492h-3.3301c-0.33067 1.38-1.1814 2.4453-2.832 2.4453-0.9 0-1.6322-0.33577-2.1016-0.89843-0.64-0.724-0.82618-1.5465-0.82618-4.8691 0-3.3173 0.18618-4.1432 0.82618-4.8672 0.46933-0.55867 1.2016-0.89649 2.1016-0.89649 1.6507 0 2.5014 1.0673 2.832 2.4473h3.3301c-0.59067-3.6093-3.0448-5.4531-6.1875-5.4531zm-53.734 0.14649v17.25h3.2832v-10.588l6.6641 10.588h2.9258v-17.25h-3.2832v10.562l-6.6602-10.562h-2.9297zm21.072 0-6.1172 17.25h3.4238l1.0156-3.0566h5.9727l0.99219 3.0566h3.4258l-6.1406-17.25h-2.5723zm16.486 0-6.123 17.25h3.4277l1.0176-3.0566h5.9727l0.99219 3.0566h3.4258l-6.1406-17.25h-2.5723zm24.256 0v17.25h3.2793v-6.4961h3.2383c3.472 0 5.5488-2.445 5.5488-5.377 0-2.9307-2.0768-5.377-5.5488-5.377h-6.5176zm3.2793 3.002h3.0742c1.488 0 2.4297 0.96967 2.4297 2.375s-0.94169 2.3516-2.4297 2.3516h-3.0742v-4.7266zm-42.652 2.0859 2.0527 6.2734h-4.1797l2.127-6.2734zm16.484 0 2.0527 6.2734h-4.1816l2.1289-6.2734zm-13.6 20.105c-0.656 0-1.1539 0.23377-1.5605 0.64844-0.58 0.59733-0.56641 1.3368-0.56641 2.3555s-0.0136 1.7548 0.56641 2.3535c0.40666 0.412 0.90454 0.64648 1.5605 0.64648 0.65334 0 1.1456-0.23448 1.5469-0.64648 0.584-0.59867 0.57617-1.3348 0.57617-2.3535s0.008-1.7581-0.57617-2.3555c-0.40133-0.41467-0.89354-0.64844-1.5469-0.64844zm-6.5391 0.0527v5.8984h1.123v-2.3945h2.2715v-1.0274h-2.2715v-1.4492h2.6699v-1.0274h-3.793zm9.7188 0v3.877c0 1.2533 0.94243 2.0742 2.1211 2.0742s2.1133-0.82088 2.1133-2.0742v-3.877h-1.1133v3.8359c0 0.68-0.39334 1.0879-1 1.0879-0.60667 0-0.9961-0.40789-0.9961-1.0879v-3.8359h-1.125zm5.4902 0v5.8984h1.1211v-3.6211l2.2793 3.6211h1v-5.8984h-1.123v3.6133l-2.2773-3.6133h-1zm5.7422 0v5.8984h2.0781c0.59733 0 1.1395-0.17121 1.5195-0.56055 0.648-0.664 0.58008-1.5234 0.58008-2.4141 0-0.884 0.0679-1.7006-0.58008-2.3633-0.38-0.384-0.9222-0.56055-1.5195-0.56055h-2.0781zm5.3301 0v5.8984h3.7852v-1.0254h-2.6641v-1.4316h2.2695v-1.0293h-2.2695v-1.3848h2.6641v-1.0274h-3.7852zm4.8828 0v5.8984h2.0801c0.59467 0 1.1389-0.17121 1.5176-0.56055 0.64667-0.664 0.58008-1.5234 0.58008-2.4141 0-0.884 0.0666-1.7006-0.58008-2.3633-0.37867-0.384-0.92291-0.56055-1.5176-0.56055h-2.0801zm-24.625 0.97656c0.30667 0 0.55742 0.12574 0.71875 0.31641 0.21867 0.24933 0.2793 0.5222 0.2793 1.6582s-0.0606 1.4063-0.2793 1.6543c-0.16133 0.19333-0.41208 0.31641-0.71875 0.31641-0.30933 0-0.56646-0.12308-0.73046-0.31641-0.21467-0.248-0.27149-0.5183-0.27149-1.6543s0.0568-1.4089 0.27149-1.6582c0.164-0.19067 0.42113-0.31641 0.73046-0.31641zm15.535 0.0508h0.84961c0.388 0 0.64784 0.12194 0.83984 0.36328 0.21067 0.26533 0.24414 0.63853 0.24414 1.5332 0 0.896-0.0335 1.32-0.24414 1.584-0.192 0.23999-0.45184 0.36523-0.83984 0.36523h-0.84961v-3.8457zm10.215 0h0.84766c0.388 0 0.64642 0.12194 0.84375 0.36328 0.208 0.26533 0.23828 0.63853 0.23828 1.5332 0 0.896-0.0303 1.32-0.23828 1.584-0.19733 0.23999-0.45575 0.36523-0.84375 0.36523h-0.84766v-3.8457zm-19.412 9.7793c-2.1947 0-3.8652 1.4629-3.8652 3.9629 0 2.356 1.6041 3.7676 3.2734 3.7676 0.29733 0 0.62525-0.0368 0.91992-0.16211l-2.5742 5.248h2.4551l2.627-5.5c0.55867-1.156 1.0293-2.2294 1.0293-3.3867 0-2.5187-1.6719-3.9297-3.8652-3.9297zm9.4336 0c-2.02 0-3.7793 1.3564-3.7793 3.7871v5.3516c0 2.4293 1.7593 3.7832 3.7793 3.7832 2.0213 0 3.7578-1.3539 3.7578-3.7832v-5.3516c0-2.4307-1.7365-3.7871-3.7578-3.7871zm9.4668 0c-2.1933 0-3.8633 1.4629-3.8633 3.9629 0 2.356 1.6008 3.7676 3.2715 3.7676 0.29733 0 0.62587-0.0368 0.92187-0.16211l-2.5742 5.248h2.4531l2.627-5.5c0.55734-1.156 1.0274-2.2294 1.0274-3.3867 0-2.5187-1.67-3.9297-3.8633-3.9297zm-28.785 0.10938-2.5234 2.248v2.5l2.5234-2.252v10.211h2.2617v-12.707h-2.2617zm9.8848 1.9785c0.924 0 1.6016 0.67743 1.6016 1.8574 0 1.1787-0.67757 1.8555-1.6016 1.8555-0.95733 0-1.5996-0.73146-1.5996-1.8555 0-1.18 0.67561-1.8574 1.5996-1.8574zm9.4336 0c0.88533 0 1.4961 0.66176 1.4961 1.7324v5.3027c0 1.0707-0.61076 1.7148-1.4961 1.7148-0.888 0-1.5156-0.64417-1.5156-1.7148v-5.3027c0-1.0707 0.62763-1.7324 1.5156-1.7324zm9.4668 0c0.92266 0 1.5996 0.67743 1.5996 1.8574 0 1.1787-0.67694 1.8555-1.5996 1.8555-0.95734 0-1.6016-0.73146-1.6016-1.8555 0-1.18 0.67757-1.8574 1.6016-1.8574z" transform="matrix(0.75 0 0 -0.75 25.652 536.04)" fill="#192846"/><text font-weight="100" font-size="1.2459px" transform="scale(1,-1)" y="-346.78931" x="120.7305" font-family="&apos;ITC Avant Garde Std&apos;" fill="#100f0d"><tspan y="-346.78931" x="120.7305">EO14</tspan></text>
</g></g></g></g></svg>
