<?xml version="1.0" encoding="UTF-8" standalone="no"?>
<!-- Created with Inkscape (http://www.inkscape.org/) -->

<svg
   xmlns:dc="http://purl.org/dc/elements/1.1/"
   xmlns:cc="http://creativecommons.org/ns#"
   xmlns:rdf="http://www.w3.org/1999/02/22-rdf-syntax-ns#"
   xmlns:svg="http://www.w3.org/2000/svg"
   xmlns="http://www.w3.org/2000/svg"
   xmlns:sodipodi="http://sodipodi.sourceforge.net/DTD/sodipodi-0.dtd"
   xmlns:inkscape="http://www.inkscape.org/namespaces/inkscape"
   width="142.01814mm"
   height="115.84883mm"
   viewBox="0 0 142.01814 115.84883"
   version="1.1"
   id="svg8"
   inkscape:version="0.92.4 (5da689c313, 2019-01-14)"
   sodipodi:docname="UA logo.svg">
  <defs
     id="defs2" />
  <sodipodi:namedview
     id="base"
     pagecolor="#ffffff"
     bordercolor="#666666"
     borderopacity="1.0"
     inkscape:pageopacity="0.0"
     inkscape:pageshadow="2"
     inkscape:zoom="1.2469915"
     inkscape:cx="268.38074"
     inkscape:cy="218.92693"
     inkscape:document-units="mm"
     inkscape:current-layer="layer1"
     showgrid="false"
     showguides="true"
     inkscape:guide-bbox="true"
     inkscape:snap-smooth-nodes="true"
     fit-margin-top="0"
     fit-margin-left="0"
     fit-margin-right="0"
     fit-margin-bottom="0"
     inkscape:window-width="1366"
     inkscape:window-height="715"
     inkscape:window-x="-8"
     inkscape:window-y="-8"
     inkscape:window-maximized="1" />
  <metadata
     id="metadata5">
    <rdf:RDF>
      <cc:Work
         rdf:about="">
        <dc:format>image/svg+xml</dc:format>
        <dc:type
           rdf:resource="http://purl.org/dc/dcmitype/StillImage" />
        <dc:title></dc:title>
      </cc:Work>
    </rdf:RDF>
  </metadata>
  <g
     inkscape:label="Layer 1"
     inkscape:groupmode="layer"
     id="layer1"
     transform="translate(74.751963,-71.407011)">
    <path
       d="m -12.525982,71.407081 v 53.237779 c 0,16.59359 -6.776258,23.78307 -19.496934,23.78307 -12.723377,0 -19.496934,-7.18948 -19.496934,-23.78307 V 71.407081 h -23.232113 v 53.791439 c 0,29.03879 17.009515,44.94098 42.729047,44.94098 25.5817902,0 42.729041,-15.90219 42.729041,-44.94098 V 71.407081 Z"
       id="path0"
       inkscape:connector-curvature="0"
       style="fill:#000000;fill-rule:evenodd;stroke:none;stroke-width:0.26458332" />
    <path
       style="opacity:1;vector-effect:none;fill:#000000;fill-opacity:1;fill-rule:evenodd;stroke:none;stroke-width:0.99999994;stroke-linecap:butt;stroke-linejoin:miter;stroke-miterlimit:4;stroke-dasharray:none;stroke-dashoffset:0;stroke-opacity:1"
       d="m 65.501953,389.38672 5.332031,14.6582 h 87.798826 l -5.86328,-14.6582 z"
       transform="scale(0.26458333)"
       id="path918"
       inkscape:connector-curvature="0" />
    <path
       style="opacity:1;vector-effect:none;fill:#000000;fill-opacity:1;fill-rule:evenodd;stroke:none;stroke-width:0.99999994;stroke-linecap:butt;stroke-linejoin:miter;stroke-miterlimit:4;stroke-dasharray:none;stroke-dashoffset:0;stroke-opacity:1"
       d="m 76.367188,419.26172 5.330078,14.6582 h 88.886714 l -5.86328,-14.6582 z"
       transform="scale(0.26458333)"
       id="path916"
       inkscape:connector-curvature="0" />
    <path
       style="opacity:1;vector-effect:none;fill:#000000;fill-opacity:1;fill-rule:evenodd;stroke:none;stroke-width:0.99999994;stroke-linecap:butt;stroke-linejoin:miter;stroke-miterlimit:4;stroke-dasharray:none;stroke-dashoffset:0;stroke-opacity:1"
       d="m 87.230469,449.13672 5.332031,14.6582 h 89.9707 l -5.86328,-14.6582 z"
       transform="scale(0.26458333)"
       id="path914"
       inkscape:connector-curvature="0" />
    <path
       style="opacity:1;vector-effect:none;fill:#000000;fill-opacity:1;fill-rule:evenodd;stroke:none;stroke-width:0.99999994;stroke-linecap:butt;stroke-linejoin:miter;stroke-miterlimit:4;stroke-dasharray:none;stroke-dashoffset:0;stroke-opacity:1"
       d="m 130.68945,568.63867 5.33008,14.65821 h 94.31445 l -5.86328,-14.65821 z"
       transform="scale(0.26458333)"
       id="path906"
       inkscape:connector-curvature="0" />
    <path
       style="opacity:1;vector-effect:none;fill:#000000;fill-opacity:1;fill-rule:evenodd;stroke:none;stroke-width:0.99999994;stroke-linecap:butt;stroke-linejoin:miter;stroke-miterlimit:4;stroke-dasharray:none;stroke-dashoffset:0;stroke-opacity:1"
       d="m 141.55273,598.51367 5.33008,14.65821 h 95.40235 l -5.86328,-14.65821 z"
       transform="scale(0.26458333)"
       id="path904"
       inkscape:connector-curvature="0" />
    <path
       style="opacity:1;vector-effect:none;fill:#000000;fill-opacity:1;fill-rule:evenodd;stroke:none;stroke-width:0.99999994;stroke-linecap:butt;stroke-linejoin:miter;stroke-miterlimit:4;stroke-dasharray:none;stroke-dashoffset:0;stroke-opacity:1"
       d="m 152.41797,628.38867 5.33008,14.65821 h 96.48633 l -5.86329,-14.65821 z"
       transform="scale(0.26458333)"
       id="rect844"
       inkscape:connector-curvature="0" />
    <path
       style="opacity:1;vector-effect:none;fill:#000000;fill-opacity:1;fill-rule:evenodd;stroke:none;stroke-width:0.99999994;stroke-linecap:butt;stroke-linejoin:miter;stroke-miterlimit:4;stroke-dasharray:none;stroke-dashoffset:0;stroke-opacity:1"
       d="m 62.716797,269.88477 v 14.6582 h 48.115233 l -5.86328,-14.6582 z"
       transform="scale(0.26458333)"
       id="path963"
       inkscape:connector-curvature="0" />
    <path
       style="opacity:1;vector-effect:none;fill:#000000;fill-opacity:1;fill-rule:evenodd;stroke:none;stroke-width:0.99999994;stroke-linecap:butt;stroke-linejoin:miter;stroke-miterlimit:4;stroke-dasharray:none;stroke-dashoffset:0;stroke-opacity:1"
       d="m 62.716797,299.75977 v 14.6582 h 60.064453 l -5.86328,-14.6582 z"
       transform="scale(0.26458333)"
       id="path961"
       inkscape:connector-curvature="0" />
    <path
       style="opacity:1;vector-effect:none;fill:#000000;fill-opacity:1;fill-rule:evenodd;stroke:none;stroke-width:0.99999994;stroke-linecap:butt;stroke-linejoin:miter;stroke-miterlimit:4;stroke-dasharray:none;stroke-dashoffset:0;stroke-opacity:1"
       d="m 62.716797,329.63672 v 14.65625 h 72.015623 l -5.86328,-14.65625 z"
       transform="scale(0.26458333)"
       id="path959"
       inkscape:connector-curvature="0" />
    <path
       style="opacity:1;vector-effect:none;fill:#000000;fill-opacity:1;fill-rule:evenodd;stroke:none;stroke-width:0.99999994;stroke-linecap:butt;stroke-linejoin:miter;stroke-miterlimit:4;stroke-dasharray:none;stroke-dashoffset:0;stroke-opacity:1"
       d="m 62.716797,359.51172 v 14.6582 h 83.966793 l -5.86328,-14.6582 z"
       transform="scale(0.26458333)"
       id="path957"
       inkscape:connector-curvature="0" />
    <path
       style="opacity:1;vector-effect:none;fill:#000000;fill-opacity:1;fill-rule:evenodd;stroke:none;stroke-width:0.99999994;stroke-linecap:butt;stroke-linejoin:miter;stroke-miterlimit:4;stroke-dasharray:none;stroke-dashoffset:0;stroke-opacity:1"
       d="m 62.65625,479.01172 c -0.0996,4.96407 -0.333884,9.84826 -0.6875,14.6582 h 132.51563 l -5.86329,-14.6582 z"
       transform="scale(0.26458333)"
       id="path955"
       inkscape:connector-curvature="0" />
    <path
       style="opacity:1;vector-effect:none;fill:#000000;fill-opacity:1;fill-rule:evenodd;stroke:none;stroke-width:0.99999994;stroke-linecap:butt;stroke-linejoin:miter;stroke-miterlimit:4;stroke-dasharray:none;stroke-dashoffset:0;stroke-opacity:1"
       d="m 60.392578,508.88672 c -0.668869,4.98241 -1.481755,9.86863 -2.435547,14.6582 H 206.43359 l -5.86328,-14.6582 z"
       transform="scale(0.26458333)"
       id="path953"
       inkscape:connector-curvature="0" />
    <path
       style="opacity:1;vector-effect:none;fill:#000000;fill-opacity:1;fill-rule:evenodd;stroke:none;stroke-width:0.99999994;stroke-linecap:butt;stroke-linejoin:miter;stroke-miterlimit:4;stroke-dasharray:none;stroke-dashoffset:0;stroke-opacity:1"
       d="m 54.365234,538.76367 c -1.377955,5.00911 -2.917771,9.89999 -4.626953,14.65821 H 218.38477 l -5.86329,-14.65821 z"
       transform="scale(0.26458333)"
       id="path926"
       inkscape:connector-curvature="0" />
    <path
       d="m -58.400412,180.80257 v 2.69344 c 0,0.9942 0.02718,1.92502 0.01818,1.92502 h -0.0092 c -0.009,0 -0.641673,-0.88563 -1.09358,-1.5003 l -2.322732,-3.11816 h -0.940003 v 6.3267 h 1.003199 v -2.68425 c 0,-1.12977 -0.02701,-1.97939 -0.018,-1.97939 h 0.009 c 0.009,0 0.551291,0.78625 1.111762,1.55449 l 2.304726,3.10915 h 0.939826 v -6.3267 z"
       id="path0-4"
       inkscape:connector-curvature="0"
       style="fill:#000000;fill-rule:evenodd;stroke:none;stroke-width:0.26458332" />
    <path
       d="m -49.482979,187.12927 v -6.3267 h -1.003199 v 6.3267 z"
       id="path0-9"
       inkscape:connector-curvature="0"
       style="fill:#000000;fill-rule:evenodd;stroke:none;stroke-width:0.26458329" />
    <path
       d="m -70.422656,180.80257 v 3.63326 c 0,1.27452 -0.569474,1.88901 -1.672056,1.88901 -1.09358,0 -1.654051,-0.61449 -1.654051,-1.88901 v -3.63326 h -1.003198 v 3.64244 c 0,1.82564 0.994195,2.81083 2.657249,2.81083 1.663054,0 2.666252,-0.98519 2.666252,-2.81083 v -3.64244 z"
       id="path1"
       inkscape:connector-curvature="0"
       style="fill:#000000;fill-rule:evenodd;stroke:none;stroke-width:0.26458329" />
    <path
       d="m -42.961861,180.80257 v 0.94 h 2.042583 v 5.3867 h 0.9942 v -5.3867 h 2.05176 v -0.94 z"
       id="path0-0"
       inkscape:connector-curvature="0"
       style="fill:#000000;fill-rule:evenodd;stroke:none;stroke-width:0.26458332" />
    <path
       style="fill:#000000;fill-rule:evenodd;stroke:none;stroke-width:0.26458332"
       inkscape:connector-curvature="0"
       id="path1015"
       d="m 21.734136,180.80257 v 0.94 h 2.042583 v 5.3867 h 0.9942 v -5.3867 h 2.05176 v -0.94 z" />
    <path
       d="m 51.74963,180.80257 v 0.94 h 2.042583 v 5.3867 h 0.9942 v -5.3867 h 2.05176 v -0.94 z"
       id="path1017"
       inkscape:connector-curvature="0"
       style="fill:#000000;fill-rule:evenodd;stroke:none;stroke-width:0.26458332" />
    <path
       style="fill:#000000;fill-rule:evenodd;stroke:none;stroke-width:0.26458329"
       inkscape:connector-curvature="0"
       id="path1019"
       d="m 34.445906,187.12927 v -6.3267 h -1.003199 v 6.3267 z" />
    <path
       d="m -30.896122,186.18927 v -1.91602 h 2.66626 v -0.88581 h -2.66626 v -1.64487 h 3.34412 v -0.94 h -4.347307 v 6.3267 h 4.401497 v -0.94 z"
       id="path0-46"
       inkscape:connector-curvature="0"
       style="fill:#000000;fill-rule:evenodd;stroke:none;stroke-width:0.26458332" />
    <path
       style="fill:#000000;fill-rule:evenodd;stroke:none;stroke-width:0.26458329"
       d="m -20.767874,180.80257 v 6.3267 h 2.73865 c 1.780446,0 3.235547,-1.25634 3.235547,-3.13618 0,-1.89802 -1.473111,-3.19052 -3.280747,-3.19052 z m 1.0032,0.94001 h 1.69025 c 1.220149,0 2.241376,0.8676 2.241376,2.25051 0,1.37373 -1.021217,2.19618 -2.196176,2.19618 h -1.73545 z"
       id="path0-08"
       inkscape:connector-curvature="0" />
    <path
       style="fill:#000000;fill-rule:evenodd;stroke:none;stroke-width:0.26458332"
       d="m 1.6223731,180.80257 -2.6752567,6.3267 h 1.07555992 l 0.58746997,-1.4371 H 3.5655431 l 0.5875,1.4371 h 1.07557 l -2.67527,-6.3267 z m 0.4609,1.21114 h 0.009 c 0.009,0 0.16259,0.47895 0.29817,0.82246 l 0.81343,1.97937 H 0.97150632 l 0.81343678,-1.97937 c 0.13557,-0.34351 0.28916,-0.82246 0.29816,-0.82246 z"
       id="path0-96"
       inkscape:connector-curvature="0" />
    <path
       style="fill:#000000;fill-rule:evenodd;stroke:none;stroke-width:0.26458335"
       d="m 11.446153,180.80256 v 6.32672 h 1.0032 v -2.25954 h 1.06658 c 0.0722,0 0.13556,0 0.19876,-0.009 l 1.33774,2.26854 h 1.12977 l -1.5003,-2.4493 c 0.80425,-0.29834 1.26533,-0.94001 1.26533,-1.82581 0,-1.24717 -0.913,-2.05161 -2.4313,-2.05161 z m 1.0032,0.94 h 1.18397 c 0.82261,0 1.27455,0.46092 1.27455,1.1116 0,0.62367 -0.41593,1.12977 -1.27455,1.12977 h -1.18397 z"
       id="path0-05"
       inkscape:connector-curvature="0" />
    <path
       d="m 67.184799,182.38425 c -0.234955,-1.01238 -1.156773,-1.70824 -2.331731,-1.70824 -1.301524,0 -2.250528,0.78625 -2.250528,1.77143 0,1.10275 1.003196,1.45511 1.744252,1.70824 0.894811,0.29833 1.870998,0.46092 1.870998,1.24735 0,0.54226 -0.470087,0.95799 -1.274339,0.95799 -0.912991,0 -1.464282,-0.58748 -1.581673,-1.24733 l -0.958182,0.26214 c 0.271144,1.10258 1.156951,1.88 2.503667,1.88 1.409911,0 2.358914,-0.79543 2.358914,-1.889 0,-1.18396 -1.129765,-1.62686 -2.033578,-1.91619 -0.813431,-0.25297 -1.608856,-0.4519 -1.608856,-1.05739 0,-0.5061 0.479091,-0.84962 1.184134,-0.84962 0.677861,0 1.274343,0.39771 1.418915,1.10275 z"
       id="path0-00"
       inkscape:connector-curvature="0"
       style="fill:#000000;fill-rule:evenodd;stroke:none;stroke-width:0.26458335" />
    <path
       style="fill:#000000;fill-rule:evenodd;stroke:none;stroke-width:0.26458335"
       inkscape:connector-curvature="0"
       id="path1082"
       d="m 45.901195,182.38425 c -0.234955,-1.01238 -1.156773,-1.70824 -2.331731,-1.70824 -1.301524,0 -2.250528,0.78625 -2.250528,1.77143 0,1.10275 1.003196,1.45511 1.744252,1.70824 0.894811,0.29833 1.870998,0.46092 1.870998,1.24735 0,0.54226 -0.470087,0.95799 -1.274339,0.95799 -0.912991,0 -1.464282,-0.58748 -1.581673,-1.24733 l -0.958182,0.26214 c 0.271144,1.10258 1.156951,1.88 2.503667,1.88 1.409911,0 2.358914,-0.79543 2.358914,-1.889 0,-1.18396 -1.129765,-1.62686 -2.033578,-1.91619 -0.813431,-0.25297 -1.608856,-0.4519 -1.608856,-1.05739 0,-0.5061 0.479091,-0.84962 1.184134,-0.84962 0.677861,0 1.274343,0.39771 1.418915,1.10275 z" />
  </g>
</svg>
