<?xml version="1.0"?>
<svg xmlns="http://www.w3.org/2000/svg" width="300" height="104.70515">
 <g transform="translate(-328.10868,-444.0229) matrix(3.1988866,0,0,3.1988866,-495.41464,-85.188967)">
  <g transform="matrix(1.25,0,0,-1.25,301.26936,189.86927)">
   <path d="m 0,0 5.996,5.62 -17.745,0 -15.846,7.579 7.837,-7.579 -15.305,0 20.719,-5.237 7.261,-7.022 4.359,4.086 16.181,-4.083 0.416,0 L 0,0 Z" style="fill:#bdbcbc;fill-rule:nonzero;stroke:none" />
  </g>
  <g transform="matrix(1.25,0,0,-1.25,323.40698,166.83939)">
   <path d="m 0,0 0,-25.06 3.202,0 0,12.253 12.66,0 0,2.938 -12.66,0 0,6.932 12.655,0 0,2.937 L 0,0 Z" style="fill:#e51636;fill-rule:nonzero;stroke:none" />
  </g>
  <path d="m 347.21824,198.16439 4.005,0 0,-31.325 -4.005,0 L 347.21824,198.16439 Z" style="fill:#e51636;fill-rule:nonzero;stroke:none" />
  <g transform="matrix(1.25,0,0,-1.25,307.40561,165.43627)">
   <path d="m 0,0 -11.992,-26.182 3.443,0 8.549,19.143 8.548,-19.143 3.444,0 L 0,0 Z" style="fill:#e51636;fill-rule:nonzero;stroke:none" />
  </g>
 </g>
</svg>